<svg width="240" height="178" viewBox="0 0 240 178" fill="none" xmlns="http://www.w3.org/2000/svg">
<path d="M97.3453 115.336L52.6071 145.225L8.50342 79.3547L53.3051 49.4023L97.3453 115.336Z" fill="#F4F4F4"/>
<path d="M74.2464 112.163L73.7388 115.336L51.4648 112.1L51.9725 108.99L74.2464 112.163Z" fill="#DFDFDF"/>
<path d="M63.0144 100.994L66.2508 101.438L62.6971 123.332L59.4607 122.887L63.0144 100.994Z" fill="#DFDFDF"/>
<path d="M42.5172 73.1358C42.5806 73.1358 38.0751 76.2452 32.4907 79.9258C26.9698 83.6699 22.4008 86.6524 22.4008 86.589C22.3374 86.5255 26.8429 83.4795 32.4273 79.7989C37.9481 76.0548 42.5172 73.0723 42.5172 73.1358Z" fill="#DFDFDF"/>
<path d="M59.0163 69.0113C59.0163 69.0113 51.5916 74.088 42.3267 80.2435C33.1252 86.4624 25.5736 91.4122 25.5736 91.3487C25.5102 91.2853 32.9983 86.272 42.1998 80.0531C51.4647 73.8976 58.9528 68.9479 59.0163 69.0113Z" fill="#DFDFDF"/>
<path d="M62.3161 73.8975C62.3161 73.9609 54.8914 79.0376 45.6265 85.1931C36.425 91.3485 28.8734 96.3617 28.8734 96.2983C28.81 96.2348 36.2981 91.2216 45.4996 85.0027C54.7645 78.8472 62.2526 73.8975 62.3161 73.8975Z" fill="#DFDFDF"/>
<path d="M65.6161 78.8473C65.6161 78.9107 58.1915 83.924 48.9265 90.1429C39.7251 96.2984 32.1735 101.248 32.1735 101.248C32.11 101.185 39.5981 96.108 48.7996 89.9525C58.0646 83.797 65.5526 78.7838 65.6161 78.8473Z" fill="#DFDFDF"/>
<path d="M68.9159 83.7965C68.9159 83.86 61.4913 88.8732 52.2263 95.0287C43.0249 101.248 35.4733 106.197 35.4733 106.134C35.4098 106.134 42.8979 101.057 52.0994 94.9017C61.3644 88.6828 68.8525 83.733 68.9159 83.7965Z" fill="#DFDFDF"/>
<path d="M240 148.905L202.369 174.098L165.373 118.699L202.94 93.5693L240 148.905Z" fill="#F4F4F4"/>
<path d="M220.582 146.303L220.137 148.968L201.417 146.239L201.861 143.574L220.582 146.303Z" fill="#DFDFDF"/>
<path d="M211.126 136.848L213.855 137.292L210.873 155.695L208.144 155.251L211.126 136.848Z" fill="#DFDFDF"/>
<path d="M193.929 113.495C193.993 113.559 190.185 116.097 185.553 119.27C180.857 122.379 177.049 124.854 176.986 124.791C176.986 124.791 180.73 122.189 185.426 119.08C190.058 115.97 193.929 113.432 193.929 113.495Z" fill="#DFDFDF"/>
<path d="M207.763 110.005C207.763 110.068 201.544 114.32 193.802 119.524C185.997 124.664 179.715 128.852 179.651 128.789C179.651 128.725 185.934 124.537 193.675 119.333C201.417 114.13 207.7 110.005 207.763 110.005Z" fill="#DFDFDF"/>
<path d="M210.555 114.193C210.555 114.193 204.273 118.445 196.531 123.648C188.789 128.852 182.507 132.977 182.443 132.977C182.443 132.913 188.662 128.662 196.404 123.458C204.209 118.254 210.492 114.13 210.555 114.193Z" fill="#DFDFDF"/>
<path d="M213.284 118.318C213.347 118.382 207.065 122.57 199.323 127.773C191.581 132.977 185.235 137.165 185.235 137.102C185.172 137.038 191.454 132.787 199.196 127.583C206.938 122.443 213.284 118.255 213.284 118.318Z" fill="#DFDFDF"/>
<path d="M216.076 122.443C216.076 122.507 209.857 126.758 202.115 131.898C194.31 137.102 188.027 141.29 187.964 141.227C187.964 141.163 194.246 136.975 201.988 131.771C209.73 126.568 216.013 122.38 216.076 122.443Z" fill="#DFDFDF"/>
<path d="M111.179 112.227L70.1851 90.2699L102.485 29.8574L143.48 51.8141L111.179 112.227Z" fill="#F4F4F4"/>
<path d="M104.135 93.3161L101.534 94.2045L94.9338 75.9285L97.5356 75.04L104.135 93.3161Z" fill="#DFDFDF"/>
<path d="M108.133 80.2441L109.085 82.8459L90.936 89.0649L89.9841 86.3996L108.133 80.2441Z" fill="#DFDFDF"/>
<path d="M121.015 53.2739C121.015 53.3374 116.827 51.1798 111.75 48.4511C106.674 45.7224 102.549 43.4379 102.549 43.3744C102.612 43.311 106.737 45.4685 111.877 48.1973C116.954 50.926 121.079 53.2105 121.015 53.2739Z" fill="#DFDFDF"/>
<path d="M130.851 64.1251C130.851 64.1885 123.934 60.5714 115.494 56.0658C107.054 51.4968 100.201 47.8162 100.264 47.7528C100.264 47.6893 107.181 51.3065 115.621 55.812C124.061 60.381 130.915 64.0616 130.851 64.1251Z" fill="#DFDFDF"/>
<path d="M128.44 68.6299C128.44 68.6934 121.523 65.0763 113.083 60.5707C104.643 56.0652 97.7893 52.3211 97.7893 52.2577C97.8528 52.1942 104.706 55.8113 113.21 60.3803C121.65 64.8859 128.503 68.5665 128.44 68.6299Z" fill="#DFDFDF"/>
<path d="M126.029 73.1993C126.029 73.2627 119.112 69.6456 110.672 65.0766C102.232 60.571 95.3782 56.827 95.3782 56.7635C95.4416 56.7 102.295 60.3806 110.799 64.8862C119.239 69.3917 126.092 73.1358 126.029 73.1993Z" fill="#DFDFDF"/>
<path d="M123.617 77.7051C123.617 77.7686 116.7 74.1515 108.26 69.5825C99.7569 65.0769 92.9668 61.3963 92.9668 61.3329C93.0303 61.2694 99.8838 64.8865 108.387 69.3921C116.827 73.8976 123.681 77.6417 123.617 77.7051Z" fill="#DFDFDF"/>
<path d="M123.871 0.602539H122.792V18.1805H123.871V0.602539Z" fill="black" fill-opacity="0.2"/>
<path d="M25.7005 66.1555C22.2738 92.935 35.9808 120.412 57.6836 136.467C79.3864 152.522 107.943 157.79 134.659 153.919C153.696 151.19 172.607 143.765 186.06 129.931C199.513 116.161 206.621 95.4098 201.163 76.9434C199.133 69.963 195.135 63.1729 188.725 59.6827C178.572 54.0984 166.007 58.1597 155.156 62.348C144.304 66.5997 131.803 70.7245 121.586 65.1401C113.717 60.8884 109.72 52.1311 103.945 45.2776C94.1722 33.6647 78.3076 27.5092 63.268 29.4765C61.3642 29.7303 59.5239 30.111 57.6836 30.5553C41.6921 34.8704 29.5715 48.0063 26.0813 64.2517L25.7005 66.1555Z" fill="#EBEBEB"/>
<path d="M99.3125 39.3758H147.351C147.351 39.3758 142.908 18.1172 122.983 18.1172C105.214 18.1172 99.3125 39.3758 99.3125 39.3758Z" fill="#D64D6F"/>
<path d="M123.871 0.602539H122.792V18.1805H123.871V0.602539Z" fill="#D64D6F"/>
<path d="M230.291 176.065C230.291 176.129 178.763 176.192 115.177 176.192C51.5283 176.192 0 176.129 0 176.065C0 176.002 51.5283 176.002 115.177 176.002C178.763 176.002 230.291 176.002 230.291 176.065Z" fill="#263138"/>
<path d="M12.7551 151.062C14.0877 151.126 15.3569 151.887 16.2453 152.903C17.1337 153.918 17.7048 155.187 18.0221 156.456C18.7202 158.995 18.2759 161.977 17.5779 164.516C14.8492 163.5 13.1358 160.581 12.3743 159.058C11.1686 156.647 10.4706 151.57 12.7551 151.062Z" fill="#D64D6F"/>
<path d="M21.5123 167.562C20.6239 166.292 20.6239 164.579 21.322 163.246C21.9565 161.914 23.2892 160.962 24.7487 160.518C25.3833 160.264 26.1448 160.2 26.7794 160.581C27.287 160.962 27.5409 161.66 27.4774 162.295C27.414 162.929 27.0332 163.564 26.6525 164.071C25.3198 165.848 23.7334 167.371 21.5123 167.562Z" fill="#D64D6F"/>
<path d="M21.8296 176.001C21.7662 176.001 21.7662 175.811 21.7027 175.43C21.6392 175.113 21.5123 174.605 21.3854 174.034C21.195 172.828 20.8777 171.115 21.1316 169.211C21.322 167.307 22.0835 165.658 22.9084 164.706C23.2892 164.198 23.6699 163.881 23.9237 163.69C24.0507 163.563 24.1776 163.5 24.241 163.437C24.3045 163.373 24.368 163.373 24.368 163.373C24.4314 163.373 23.7334 163.817 22.9719 164.769C22.2738 165.784 21.5123 167.371 21.322 169.211C21.0681 171.052 21.322 172.765 21.5123 173.971C21.6392 174.605 21.7027 175.113 21.7662 175.43C21.8296 175.811 21.8296 176.001 21.8296 176.001Z" fill="#263138"/>
<path d="M13.6436 154.934C13.6436 154.934 13.6436 154.997 13.707 155.124C13.8339 155.314 13.8974 155.505 14.0243 155.759C14.2781 156.266 14.5954 157.028 15.0396 157.98C15.8646 159.883 16.9434 162.549 18.0856 165.531C19.2279 168.514 20.1798 171.179 20.8778 173.146C21.2586 174.162 21.5124 174.923 21.7028 175.494C21.7662 175.748 21.8297 175.938 21.8932 176.129C21.8932 176.256 21.9566 176.383 21.9566 176.383C21.9566 176.383 21.8932 176.256 21.8297 176.129C21.7662 176.002 21.7028 175.748 21.5759 175.494C21.3855 174.923 21.1317 174.162 20.7509 173.21C20.0529 171.242 19.0375 168.577 17.8953 165.595C16.753 162.612 15.6742 159.947 14.9127 158.043C14.4685 157.091 14.1512 156.33 13.9608 155.759C13.8339 155.505 13.7705 155.314 13.707 155.124C13.6436 154.997 13.6436 154.934 13.6436 154.934Z" fill="#263138"/>
<path d="M18.5933 170.417C16.9434 167.689 13.9608 165.785 10.7879 165.595C9.96295 165.531 9.01107 165.658 8.63032 166.356C8.24957 167.118 8.75724 167.942 9.32836 168.577C11.6129 171.052 15.4838 171.877 18.5933 170.608V170.417Z" fill="#D64D6F"/>
<path d="M11.9937 167.752C11.9937 167.688 12.184 167.688 12.5013 167.752C12.6917 167.752 12.8821 167.752 13.0724 167.815C13.3263 167.879 13.5801 167.879 13.8974 167.942C14.1512 168.006 14.4685 168.069 14.7858 168.196C15.1031 168.323 15.4839 168.45 15.8012 168.577C16.4992 168.894 17.2607 169.338 17.9588 169.909C18.6568 170.417 19.2914 171.052 19.799 171.623C19.9894 171.94 20.2433 172.257 20.3702 172.575C20.5605 172.828 20.7509 173.146 20.8778 173.399C21.0048 173.653 21.0682 173.907 21.1951 174.098C21.2586 174.288 21.3221 174.478 21.3855 174.669C21.5124 174.986 21.5124 175.176 21.5124 175.176C21.449 175.176 21.2586 174.478 20.7509 173.463C20.624 173.209 20.4336 172.892 20.2433 172.638C20.1163 172.321 19.8625 172.067 19.6087 171.75C19.1645 171.178 18.5299 170.544 17.8953 170.036C17.1972 169.529 16.4357 169.084 15.7377 168.767C15.4204 168.64 15.0397 168.45 14.7224 168.386C14.4051 168.259 14.1512 168.196 13.8339 168.069C12.7552 167.815 11.9937 167.752 11.9937 167.752Z" fill="#263138"/>
<path d="M186.568 72.5645L182.951 82.9716L167.911 83.7331L165.436 89.3175L181.111 90.9039C184.22 92.2366 187.774 90.6501 188.916 87.4137L193.104 75.7374L186.568 72.5645Z" fill="#FFBD9C"/>
<path d="M217.599 170.418C217.599 170.418 206.621 135.516 206.367 134.374C206.177 133.358 210.365 108.165 210.873 101.692L196.023 102.2C196.023 102.2 196.023 102.264 196.023 102.327L189.677 102.644L195.389 174.162H202.242L201.544 150.429C205.732 161.788 211.825 173.337 211.825 173.337L217.599 170.418Z" fill="#FFBD9C"/>
<path d="M201.798 158.932C201.798 158.742 201.735 151 201.735 151C201.671 151.444 199.133 144.273 199.196 143.829C199.196 143.639 201.798 158.932 201.798 158.932Z" fill="#A36956"/>
<path d="M198.879 140.466C198.879 140.466 198.815 140.593 198.815 140.91C198.815 141.164 198.815 141.545 198.815 142.052C198.879 142.306 198.879 142.623 198.879 142.877C198.942 143.195 199.006 143.512 199.069 143.829C199.196 144.464 199.387 145.162 199.64 145.923C200.085 147.383 200.656 148.589 201.036 149.54C201.227 149.921 201.417 150.302 201.544 150.619C201.671 150.873 201.735 151 201.735 151C201.735 151 201.671 150.873 201.608 150.556C201.544 150.302 201.354 149.921 201.227 149.477C200.846 148.525 200.338 147.256 199.831 145.86C199.577 145.098 199.387 144.4 199.26 143.766C199.196 143.448 199.133 143.131 199.069 142.877C199.069 142.56 199.006 142.306 199.006 142.052C198.942 141.545 198.942 141.164 198.942 140.91C198.879 140.593 198.879 140.466 198.879 140.466Z" fill="#A36956"/>
<path d="M195.262 174.542V173.844L202.242 173.59V176.192L201.861 176.255C199.894 176.382 192.025 176.699 190.756 176.319C189.297 175.874 195.262 174.542 195.262 174.542Z" fill="#F96AAE"/>
<path d="M202.369 176.064C202.369 176.064 202.305 176.064 202.242 176.064C202.115 176.064 202.052 176.064 201.925 176.064C201.544 176.128 201.1 176.128 200.656 176.128C199.577 176.191 198.054 176.255 196.467 176.255C194.817 176.255 193.358 176.191 192.279 176.191C191.771 176.191 191.327 176.128 191.01 176.128C190.883 176.128 190.756 176.128 190.629 176.128C190.566 176.128 190.502 176.128 190.502 176.128C190.502 176.128 190.566 176.128 190.629 176.128C190.756 176.128 190.883 176.128 191.01 176.128C191.327 176.128 191.771 176.128 192.279 176.128C193.358 176.128 194.817 176.191 196.467 176.128C198.054 176.128 199.577 176.128 200.656 176.064C201.1 176.064 201.544 176.064 201.925 176.064C202.052 176.064 202.115 176.064 202.242 176.064C202.305 176.064 202.369 176.064 202.369 176.064Z" fill="#263138"/>
<path d="M192.977 176.255C192.914 176.255 192.914 176.001 192.723 175.683C192.533 175.366 192.279 175.239 192.279 175.176C192.279 175.176 192.596 175.303 192.787 175.62C192.977 175.937 192.977 176.318 192.977 176.255Z" fill="#263138"/>
<path d="M195.008 175.239C195.008 175.239 194.881 175.112 194.817 174.985C194.69 174.795 194.627 174.668 194.627 174.668C194.69 174.668 194.754 174.731 194.881 174.922C194.944 175.049 195.071 175.239 195.008 175.239Z" fill="#263138"/>
<path d="M195.579 174.923C195.579 174.923 195.452 174.859 195.325 174.796C195.198 174.669 195.135 174.542 195.135 174.542C195.135 174.542 195.261 174.605 195.388 174.732C195.515 174.796 195.579 174.923 195.579 174.923Z" fill="#263138"/>
<path d="M195.96 174.288C195.96 174.288 195.769 174.288 195.579 174.288C195.388 174.352 195.198 174.288 195.198 174.288C195.198 174.288 195.388 174.225 195.579 174.225C195.769 174.225 195.96 174.225 195.96 174.288Z" fill="#263138"/>
<path d="M196.086 173.78C196.086 173.844 195.896 173.907 195.642 173.907C195.388 173.971 195.261 173.907 195.261 173.844C195.261 173.844 195.452 173.844 195.642 173.844C195.896 173.844 196.023 173.78 196.086 173.78Z" fill="#263138"/>
<path d="M194.754 174.605C194.754 174.605 194.627 174.668 194.31 174.605C194.183 174.605 194.056 174.605 193.865 174.542C193.738 174.478 193.675 174.478 193.612 174.415C193.548 174.351 193.485 174.351 193.485 174.288C193.485 174.224 193.485 174.097 193.548 174.097C193.992 173.843 194.373 174.097 194.563 174.351C194.627 174.415 194.69 174.542 194.69 174.605C194.754 174.732 194.69 174.732 194.69 174.732C194.69 174.732 194.69 174.542 194.5 174.351C194.436 174.288 194.31 174.161 194.119 174.097C193.992 174.097 193.738 174.034 193.612 174.161C193.548 174.224 193.548 174.288 193.612 174.351C193.675 174.415 193.802 174.415 193.865 174.415C194.056 174.478 194.183 174.542 194.373 174.542C194.627 174.605 194.754 174.605 194.754 174.605Z" fill="#263138"/>
<path d="M194.69 174.669C194.69 174.669 194.563 174.542 194.627 174.351C194.627 174.224 194.69 174.098 194.754 174.034C194.817 173.907 194.944 173.78 195.135 173.78C195.198 173.78 195.261 173.907 195.261 173.971C195.261 174.034 195.198 174.161 195.198 174.161C195.135 174.288 195.008 174.415 194.944 174.478C194.817 174.605 194.69 174.669 194.69 174.669C194.69 174.605 194.817 174.542 194.944 174.415C195.008 174.351 195.071 174.224 195.135 174.161C195.135 174.034 195.198 173.907 195.071 173.844C195.008 173.844 194.881 173.971 194.817 174.034C194.754 174.161 194.69 174.224 194.69 174.351C194.627 174.542 194.69 174.669 194.69 174.669Z" fill="#263138"/>
<path d="M202.242 174.161C202.242 174.161 201.988 174.161 201.671 174.161C201.417 174.225 200.973 174.352 200.592 174.605C200.211 174.923 199.957 175.367 199.894 175.621C199.767 175.938 199.767 176.128 199.767 176.128C199.767 176.128 199.767 176.065 199.767 176.001C199.767 175.874 199.767 175.748 199.831 175.621C199.894 175.303 200.148 174.859 200.529 174.542C200.909 174.225 201.354 174.161 201.671 174.098C201.861 174.098 201.988 174.098 202.052 174.098C202.179 174.161 202.242 174.161 202.242 174.161Z" fill="#263138"/>
<path d="M198.879 175.493C198.879 175.493 198.435 175.62 197.863 175.62C197.292 175.62 196.785 175.557 196.848 175.493C196.848 175.493 197.292 175.493 197.863 175.493C198.371 175.493 198.879 175.493 198.879 175.493Z" fill="#263138"/>
<path d="M200.211 175.493C200.211 175.493 200.211 175.557 200.148 175.684C200.084 175.81 200.084 175.874 200.021 175.874C200.021 175.874 200.021 175.747 200.084 175.684C200.084 175.557 200.211 175.493 200.211 175.493Z" fill="#263138"/>
<path d="M200.719 174.859C200.782 174.859 200.719 174.923 200.655 174.986C200.592 175.05 200.465 175.113 200.465 175.113C200.465 175.113 200.529 175.05 200.592 174.923C200.655 174.859 200.719 174.859 200.719 174.859Z" fill="#263138"/>
<path d="M201.48 174.542C201.48 174.542 201.353 174.542 201.29 174.605C201.163 174.669 201.1 174.669 201.1 174.669C201.036 174.669 201.1 174.542 201.227 174.542C201.353 174.478 201.48 174.542 201.48 174.542Z" fill="#263138"/>
<path d="M201.988 174.415C201.988 174.415 201.988 174.479 201.925 174.479C201.861 174.542 201.798 174.542 201.798 174.479C201.798 174.479 201.798 174.415 201.861 174.415C201.925 174.415 201.988 174.415 201.988 174.415Z" fill="#263138"/>
<path d="M211.634 173.907L211.38 173.336L217.663 170.163L218.741 172.575L218.361 172.765C216.647 173.653 209.603 177.207 208.271 177.334C206.811 177.524 211.634 173.907 211.634 173.907Z" fill="#F96AAE"/>
<path d="M218.805 172.384C218.805 172.384 218.741 172.384 218.678 172.447C218.614 172.511 218.488 172.574 218.361 172.638C218.043 172.765 217.726 172.955 217.282 173.209C216.266 173.653 214.934 174.288 213.474 174.986C211.951 175.62 210.619 176.255 209.603 176.636C209.159 176.826 208.778 177.016 208.461 177.143C208.334 177.143 208.207 177.207 208.144 177.27C208.08 177.27 208.017 177.27 208.017 177.27C208.017 177.27 208.08 177.27 208.144 177.207C208.207 177.207 208.334 177.143 208.461 177.08C208.778 176.953 209.159 176.762 209.603 176.572C210.619 176.191 211.951 175.557 213.411 174.922C214.934 174.224 216.266 173.589 217.218 173.145C217.663 172.891 218.043 172.701 218.361 172.574C218.488 172.511 218.614 172.447 218.678 172.447C218.741 172.384 218.805 172.384 218.805 172.384Z" fill="#263138"/>
<path d="M210.301 176.445C210.301 176.445 210.174 176.191 209.857 176.001C209.54 175.811 209.223 175.747 209.286 175.747C209.223 175.684 209.603 175.684 209.921 175.938C210.238 176.128 210.365 176.445 210.301 176.445Z" fill="#263138"/>
<path d="M211.761 174.668C211.761 174.668 211.634 174.605 211.444 174.478C211.317 174.351 211.19 174.288 211.19 174.288C211.19 174.224 211.317 174.288 211.507 174.415C211.634 174.541 211.761 174.605 211.761 174.668Z" fill="#263138"/>
<path d="M212.142 174.161C212.142 174.161 212.015 174.161 211.824 174.098C211.697 174.034 211.571 173.971 211.571 173.971C211.571 173.907 211.697 173.971 211.888 174.034C212.015 174.034 212.142 174.098 212.142 174.161Z" fill="#263138"/>
<path d="M212.205 173.399C212.205 173.399 212.078 173.462 211.888 173.589C211.698 173.653 211.571 173.716 211.571 173.716C211.507 173.653 211.698 173.589 211.825 173.526C212.015 173.399 212.205 173.335 212.205 173.399Z" fill="#263138"/>
<path d="M212.142 172.892C212.142 172.955 212.015 173.082 211.824 173.209C211.571 173.272 211.38 173.336 211.38 173.336C211.38 173.272 211.57 173.209 211.761 173.145C211.951 173.019 212.078 172.892 212.142 172.892Z" fill="#263138"/>
<path d="M211.317 174.161C211.317 174.161 211.126 174.288 210.873 174.352C210.746 174.415 210.555 174.415 210.428 174.478C210.301 174.478 210.238 174.478 210.111 174.478C210.048 174.478 209.984 174.478 209.921 174.415C209.921 174.352 209.921 174.288 209.921 174.225C210.238 173.844 210.746 173.844 210.936 174.034C211.063 174.098 211.19 174.161 211.19 174.225C211.253 174.288 211.253 174.288 211.253 174.352C211.253 174.352 211.19 174.161 210.936 174.034C210.809 173.971 210.682 173.971 210.492 173.971C210.301 174.034 210.111 174.098 209.984 174.225C209.984 174.352 210.048 174.415 210.111 174.415C210.238 174.415 210.301 174.415 210.365 174.415C210.555 174.352 210.746 174.352 210.873 174.288C211.126 174.225 211.253 174.161 211.317 174.161Z" fill="#263138"/>
<path d="M211.19 174.224C211.19 174.288 211.063 174.161 211 173.971C211 173.907 211 173.78 211 173.653C211 173.526 211.063 173.336 211.253 173.272C211.317 173.272 211.571 173.463 211.571 173.526C211.634 173.59 211.444 173.59 211.444 173.653C211.444 173.78 211.444 173.844 211.38 173.971C211.317 174.161 211.253 174.224 211.253 174.224C211.19 174.224 211.253 174.097 211.317 173.907C211.38 173.844 211.38 173.717 211.38 173.59C211.38 173.526 211.38 173.336 211.253 173.336C211.126 173.399 211.126 173.526 211.063 173.653C211.063 173.78 211.063 173.907 211.063 173.971C211.126 174.161 211.19 174.224 211.19 174.224Z" fill="#263138"/>
<path d="M217.853 170.734C217.853 170.734 217.663 170.798 217.409 170.925C217.155 171.115 216.774 171.369 216.584 171.813C216.33 172.257 216.33 172.701 216.33 173.019C216.394 173.336 216.457 173.526 216.457 173.526C216.457 173.526 216.393 173.463 216.393 173.4C216.33 173.336 216.33 173.209 216.267 173.019C216.267 172.701 216.267 172.257 216.52 171.813C216.711 171.305 217.092 171.052 217.409 170.861C217.536 170.798 217.663 170.734 217.726 170.734C217.853 170.734 217.853 170.671 217.853 170.734Z" fill="#263138"/>
<path d="M215.378 173.336C215.378 173.336 214.997 173.59 214.49 173.844C213.982 174.034 213.538 174.161 213.538 174.161C213.474 174.161 213.919 173.971 214.426 173.717C214.934 173.526 215.378 173.273 215.378 173.336Z" fill="#263138"/>
<path d="M216.584 172.765C216.647 172.765 216.584 172.828 216.584 172.955C216.584 173.082 216.647 173.146 216.584 173.146C216.584 173.209 216.52 173.082 216.52 172.955C216.52 172.828 216.584 172.701 216.584 172.765Z" fill="#263138"/>
<path d="M216.838 171.939C216.838 171.939 216.838 172.066 216.774 172.13C216.774 172.257 216.711 172.32 216.711 172.32C216.647 172.257 216.647 172.193 216.711 172.13C216.711 172.003 216.774 171.939 216.838 171.939Z" fill="#263138"/>
<path d="M217.345 171.369C217.345 171.369 217.282 171.433 217.218 171.496C217.092 171.56 217.092 171.686 217.028 171.686C217.028 171.686 217.028 171.56 217.155 171.433C217.218 171.369 217.345 171.369 217.345 171.369Z" fill="#263138"/>
<path d="M217.789 171.052C217.789 171.052 217.79 171.115 217.726 171.115C217.663 171.179 217.663 171.179 217.599 171.179C217.599 171.179 217.599 171.115 217.663 171.052C217.726 171.052 217.789 170.988 217.789 171.052Z" fill="#263138"/>
<path fill-rule="evenodd" clip-rule="evenodd" d="M188.345 77.6408C195.833 74.0237 203.385 79.1638 210.175 78.2754C209.984 85.002 209.413 87.6673 211.951 96.3611C215.061 107.339 213.538 129.804 215.378 142.495C216.711 151.316 222.359 162.168 223.247 164.896C224.453 168.577 223.057 168.894 219.313 171.369C216.076 173.527 208.08 176.001 204.717 174.288C203.258 173.527 200.719 173.654 199.514 173.907C194.627 174.669 190.249 174.542 188.028 174.098C185.172 173.527 184.601 173.146 184.093 170.417C182.634 162.993 182.126 132.977 186.949 106.705C188.535 97.9475 188.979 85.3193 188.345 77.6408Z" fill="#D64D6F"/>
<path d="M169.244 83.6692C169.244 83.6692 168.102 83.6058 166.896 83.9231C164.865 84.4942 161.311 86.6518 161.185 89.3171H163.723C163.723 89.3171 162.263 92.3631 162.708 92.1092C163.85 91.3477 166.007 89.1267 166.007 89.1267L169.244 83.6692Z" fill="#FFBD9C"/>
<path fill-rule="evenodd" clip-rule="evenodd" d="M185.807 90.967C176.224 91.0304 171.275 90.5862 168.8 90.0151C167.975 88.4286 167.15 86.271 168.355 83.4154C173.876 83.3519 176.986 83.2885 181.809 83.0346C182.761 81.3847 183.839 78.2753 184.347 74.3408C187.012 75.1658 189.233 75.6735 192.216 75.9907C189.487 87.1595 187.774 90.9035 185.807 90.967Z" fill="#D64D6F"/>
<path fill-rule="evenodd" clip-rule="evenodd" d="M192.279 75.9912C191.708 78.8468 189.424 92.1096 184.918 90.9674C188.979 91.0309 191.137 80.7506 192.279 75.9912Z" fill="#263138"/>
<path d="M204.463 37.3449C204.4 37.3449 204.146 35.1873 203.956 32.5855C203.702 29.9203 203.575 27.7627 203.638 27.7627C203.702 27.7627 203.892 29.9203 204.146 32.5221C204.4 35.1873 204.527 37.3449 204.463 37.3449Z" fill="#263138"/>
<path d="M215.822 27.8896C215.822 27.9531 214.109 30.4914 211.888 33.5375C209.73 36.6469 207.89 39.1218 207.827 39.1218C207.763 39.0583 209.54 36.52 211.761 33.4105C213.919 30.3645 215.759 27.8896 215.822 27.8896Z" fill="#263138"/>
<path d="M220.518 39.3751C220.518 39.4385 218.487 39.8828 215.949 40.4539C213.411 40.9615 211.38 41.3423 211.38 41.2788C211.38 41.2154 213.411 40.7712 215.886 40.2C218.424 39.6924 220.518 39.3116 220.518 39.3751Z" fill="#263138"/>
<path d="M84.8441 94.2037L70.6928 166.737L68.8525 176.192L163.025 175.748C167.277 175.748 171.021 171.94 172.353 166.419L189.106 97.9477C190.122 93.696 187.837 89.2539 184.664 89.2539L89.3496 89.3808C87.192 89.3808 85.3517 91.348 84.8441 94.2037Z" fill="#E8505B"/>
<path d="M84.8441 94.2037L70.6928 166.737L68.8525 176.192L163.025 175.748C167.277 175.748 171.021 171.94 172.353 166.419L189.106 97.9477C190.122 93.696 187.837 89.2539 184.664 89.2539L89.3496 89.3808C87.192 89.3808 85.3517 91.348 84.8441 94.2037Z" fill="#AE4A79"/>
<path d="M154.014 161.787L144.051 81.4488C143.607 78.1489 141.005 75.6741 137.895 75.7375L116.066 75.801C114.416 75.801 112.893 76.499 111.75 77.7047L101.343 88.7465L40.55 89.0638C36.806 89.0638 33.9503 92.554 34.458 96.5519L43.7229 170.798C44.1037 174.098 46.7689 176.51 49.8149 176.51L155.791 176.319C167.594 176.573 168.736 173.083 168.736 173.083C155.219 176.065 154.014 161.787 154.014 161.787Z" fill="#E57A95"/>
<path d="M108.324 145.732L104.77 149.54L77.229 124.791L80.7827 120.92L108.324 145.732Z" fill="white"/>
<path d="M103.247 120.095L107.181 123.648L82.3057 150.428L78.3079 146.874L103.247 120.095Z" fill="white"/>
<path d="M169.117 42.0406C168.863 41.9137 168.736 41.6599 168.673 41.3426L168.546 37.662C168.546 37.4082 168.609 37.2178 168.8 37.0274C168.99 36.9005 169.244 36.837 169.434 36.9005C170.069 37.0274 170.703 36.9005 171.274 36.5197C171.782 36.2025 172.099 35.6948 172.163 35.1871C172.29 34.6794 172.099 34.0449 171.719 33.6007C171.338 33.0295 170.767 32.7122 170.132 32.6488C168.99 32.5219 167.657 33.4103 167.34 34.616C167.213 35.0602 166.832 35.2506 166.388 35.1871C166.007 35.0602 165.817 34.6794 165.88 34.2352C166.388 32.3315 168.419 30.9354 170.323 31.1258C171.338 31.2527 172.29 31.8238 172.924 32.7122C173.559 33.4737 173.813 34.4891 173.622 35.4409C173.495 36.3294 172.924 37.2178 172.099 37.7889C171.465 38.1697 170.767 38.4235 170.069 38.4235L170.196 41.2791C170.196 41.7233 169.878 42.0406 169.498 42.1041C169.371 42.1041 169.244 42.0406 169.117 42.0406Z" fill="#D64D6F"/>
<path d="M170.259 43.4999C170.259 43.8806 170.005 44.1345 169.688 44.1979C169.307 44.1979 169.053 43.9441 168.99 43.6268C168.99 43.246 169.244 42.9922 169.561 42.9922C169.942 42.9288 170.196 43.1826 170.259 43.4999Z" fill="#D64D6F"/>
<path d="M156.298 36.7738C156.362 36.7738 156.362 36.7104 156.362 36.52C156.362 36.3931 156.425 36.1393 156.425 35.822C156.489 35.5047 156.552 35.1239 156.616 34.6797C156.679 34.4893 156.743 34.2355 156.806 33.9817C156.869 33.7278 156.933 33.474 157.06 33.1567C157.441 32.0145 158.012 30.6818 159.027 29.3492C160.042 28.0166 161.438 26.6839 163.215 25.7321C164.104 25.1609 165.119 24.8436 166.198 24.4629C167.277 24.2091 168.419 24.0187 169.561 24.0187C170.196 24.0187 170.767 24.0821 171.401 24.1456C171.719 24.2091 171.973 24.2725 172.29 24.336C172.607 24.3994 172.924 24.4629 173.242 24.5264C174.447 24.8436 175.653 25.4148 176.795 26.1763C179.08 27.5724 180.984 29.9203 182.062 32.776C182.57 34.172 182.824 35.7585 182.824 37.345C182.887 38.9314 182.57 40.5179 181.999 42.0409L181.809 42.4851V42.5486V42.612C182.824 44.8965 183.839 47.181 184.791 49.3386L184.918 49.1482C182.887 48.3867 180.857 47.5618 178.953 46.8637L178.89 46.8003L178.826 46.8637C177.176 48.5137 175.209 49.5924 173.178 50.1636C171.148 50.7347 169.18 50.7347 167.34 50.4174C165.436 50.1001 163.786 49.4021 162.39 48.4502C160.994 47.5618 159.915 46.483 159.027 45.3407C158.202 44.1985 157.631 43.0562 157.187 41.9774C156.869 40.9621 156.616 40.0102 156.489 39.2487C156.425 38.8045 156.425 38.4872 156.362 38.1699C156.362 37.9161 156.362 37.6623 156.362 37.4084C156.362 37.218 156.362 37.0911 156.362 36.9642C156.362 36.8373 156.298 36.7738 156.298 36.7738C156.298 36.7738 156.298 36.8373 156.298 36.9642C156.298 37.0911 156.298 37.218 156.298 37.4084C156.298 37.6623 156.298 37.9161 156.298 38.1699C156.362 38.4872 156.362 38.868 156.425 39.2487C156.489 40.0102 156.743 40.9621 157.123 42.0409C157.504 43.1197 158.075 44.2619 158.9 45.4677C159.789 46.6099 160.931 47.6887 162.327 48.6406C163.723 49.5925 165.373 50.2905 167.277 50.6078C169.117 50.9885 171.211 50.9885 173.242 50.4174C175.272 49.8463 177.303 48.704 179.016 47.0541L178.89 47.1176C180.793 47.8791 182.761 48.6406 184.855 49.4021L185.172 49.529L184.982 49.2117C184.03 47.0541 183.078 44.7696 182.062 42.4851V42.612L182.253 42.1044C182.824 40.5814 183.141 38.9314 183.141 37.345C183.141 35.695 182.887 34.1086 182.316 32.649C181.238 29.7934 179.27 27.382 176.922 25.9224C175.78 25.2244 174.511 24.5898 173.305 24.2725C172.988 24.2091 172.671 24.1456 172.353 24.0821C172.036 24.0187 171.719 23.9552 171.401 23.8918C170.83 23.8918 170.196 23.7649 169.561 23.8283C168.355 23.7649 167.213 24.0187 166.134 24.2725C165.056 24.5898 164.04 24.9706 163.152 25.5417C161.312 26.557 159.915 27.8897 158.9 29.2857C157.885 30.6184 157.314 32.0145 156.933 33.1567C156.869 33.4105 156.806 33.6644 156.679 33.9182C156.616 34.172 156.616 34.4259 156.552 34.6797C156.489 35.1239 156.425 35.5047 156.362 35.822C156.362 36.1393 156.362 36.3931 156.362 36.52C156.298 36.7104 156.298 36.7738 156.298 36.7738Z" fill="#263138"/>
<path fill-rule="evenodd" clip-rule="evenodd" d="M201.671 171.75C197.673 157.091 198.625 150.682 201.481 136.214C203.384 126.695 202.496 113.813 200.973 104.294C201.354 114.003 202.686 126.314 200.592 136.087C197.737 149.349 196.785 158.614 201.671 171.75Z" fill="#AD304F"/>
<path fill-rule="evenodd" clip-rule="evenodd" d="M213.347 142.369C212.967 149.73 212.332 158.615 211.444 165.785C213.411 157.092 213.855 147.319 213.347 142.369Z" fill="#AD304F"/>
<path fill-rule="evenodd" clip-rule="evenodd" d="M190.883 98.202C197.99 97.5674 205.605 97.1867 211.571 101.502C204.971 96.2982 198.752 97.1867 190.883 98.202Z" fill="#AD304F"/>
<path fill-rule="evenodd" clip-rule="evenodd" d="M205.352 80.1158C204.083 79.9254 202.686 91.2845 197.292 90.6499C189.614 89.8249 187.393 85.7636 179.524 80.56C179.016 80.2427 179.08 79.735 179.461 78.9735C180.603 76.6256 181.935 73.5161 183.078 69.5182C183.712 67.1068 184.728 65.3934 186.695 64.505C187.203 64.1877 187.901 62.7916 188.535 60.3167C189.297 57.2707 189.804 54.542 190.439 52.194C190.883 45.4675 193.548 41.533 198.625 41.7234C202.115 41.8503 204.083 44.6425 204.907 48.1962C206.875 53.019 209.159 56.7631 211.634 63.1089C214.363 69.9624 217.155 84.4944 217.091 96.8688C217.091 99.7879 216.711 103.659 213.284 100.232C211.19 98.2014 209.286 96.9323 208.017 95.9804C206.811 95.092 206.367 93.8228 206.494 92.4267C206.304 90.9672 206.875 80.56 205.352 80.1158Z" fill="#E57A95"/>
<path fill-rule="evenodd" clip-rule="evenodd" d="M204.717 49.2119C204.971 53.5906 204.146 55.5578 202.052 58.3499C204.209 54.7328 204.463 53.2733 204.717 49.2119Z" fill="#FFA1CE"/>
<path fill-rule="evenodd" clip-rule="evenodd" d="M191.137 54.6689C191.581 64.9492 193.041 65.6473 202.877 63.8704L205.733 63.4897L202.877 64.1877C192.85 66.6626 190.312 65.2031 191.137 54.6689Z" fill="#FFA1CE"/>
<path fill-rule="evenodd" clip-rule="evenodd" d="M200.211 60.8878C206.177 59.9993 209.096 61.9666 212.015 67.1067C208.525 62.1569 206.748 61.0147 200.211 60.8878Z" fill="#FFA1CE"/>
<path fill-rule="evenodd" clip-rule="evenodd" d="M203.067 53.8442C203.321 50.5444 202.179 48.0695 201.163 46.2927C199.831 44.0716 196.531 44.1985 195.135 45.785C193.104 48.0695 192.596 50.2905 192.47 53.1462C192.343 56.8268 194.373 59.6824 197.039 60.1901C200.021 60.8246 202.623 58.6036 203.067 53.8442Z" fill="#FFBD9C"/>
<path d="M205.352 80.1158L205.288 80.1793C202.559 75.3564 200.402 68.8837 199.831 66.2819C199.958 66.028 200.021 65.7107 200.148 65.3934C200.275 65.0127 200.148 64.3147 200.085 63.9339C200.021 63.3628 199.831 62.6013 199.767 62.2205C199.64 61.1417 199.45 60.9514 199.069 61.0783C198.562 61.2686 199.323 64.1877 198.879 64.2512C198.625 64.2512 198.371 63.2359 198.244 62.4744C198.181 61.6494 197.8 59.1111 197.546 58.9207C197.166 58.6668 196.785 59.1111 196.912 59.8726C197.039 60.6975 197.166 63.1724 196.721 63.2359C196.277 63.2359 195.896 59.0476 195.896 59.0476C195.896 59.0476 195.96 58.1592 195.516 58.1592C194.564 58.2226 195.262 62.6013 195.389 63.0455C195.452 63.3628 194.944 63.3628 194.881 63.0455C194.881 62.7282 194.627 58.9207 193.739 58.9207C193.041 58.9207 194.246 62.5378 193.866 63.3628C193.485 64.2512 193.231 60.5706 192.533 60.6341C192.279 60.6341 192.089 60.6975 192.533 62.7282C192.787 63.8704 193.548 65.9011 194.183 67.6145C195.198 73.1988 199.577 90.4595 206.494 88.7462C205.479 88.6192 207.446 83.1618 205.352 80.1158Z" fill="#FFBD9C"/>
<path d="M195.198 63.2993C195.198 63.2993 195.262 63.3628 195.325 63.2993C195.389 63.2993 195.452 63.2359 195.452 63.1089C195.452 62.8551 195.389 62.4744 195.325 62.0301C195.325 61.5225 195.198 60.9514 195.198 60.3168C195.135 59.9995 195.198 59.6187 195.198 59.238C195.198 59.0476 195.198 58.8572 195.262 58.6668C195.262 58.4765 195.389 58.2861 195.515 58.2861H195.579C195.706 58.2861 195.833 58.413 195.833 58.6034C195.896 58.7303 195.896 58.9207 195.896 59.1111C196.023 60.1264 196.087 61.2686 196.34 62.4744C196.34 62.6013 196.404 62.7282 196.467 62.9186C196.467 62.982 196.531 63.0455 196.531 63.1089C196.531 63.1724 196.594 63.2359 196.594 63.2359C196.658 63.2993 196.658 63.3628 196.785 63.3628C196.912 63.3628 196.975 63.2359 197.039 63.1724C197.039 63.0455 197.102 62.982 197.102 62.9186C197.102 62.7282 197.165 62.6013 197.165 62.4109C197.229 61.7763 197.165 61.0783 197.102 60.4437C197.102 60.0629 197.039 59.7456 197.102 59.4283C197.102 59.238 197.165 59.1111 197.292 59.0476C197.356 58.9841 197.419 58.9841 197.483 59.0476H197.546C197.61 59.1111 197.546 59.0476 197.61 59.1111C197.737 59.4283 197.8 59.8091 197.863 60.1264C197.927 60.5071 197.99 60.8244 198.054 61.2052C198.117 61.5859 198.181 61.9667 198.181 62.284C198.244 62.6647 198.308 63.0455 198.371 63.4262C198.435 63.6166 198.498 63.807 198.562 63.9974C198.625 64.1243 198.688 64.1877 198.752 64.3147C198.752 64.3147 198.879 64.3781 199.006 64.3781C199.069 64.3147 199.133 64.2512 199.133 64.1877C199.196 63.9339 199.196 63.7435 199.196 63.5531C199.196 63.3628 199.133 63.1724 199.133 62.982C199.133 62.6647 199.069 62.3474 199.069 61.9667C199.069 61.8398 199.069 61.6494 199.069 61.5225C199.069 61.459 199.133 61.3321 199.133 61.3321C199.133 61.2686 199.133 61.2686 199.196 61.2686C199.196 61.2052 199.196 61.2686 199.196 61.2052H199.26C199.513 61.0783 199.577 61.459 199.64 61.7763C199.704 62.0936 199.767 62.4109 199.831 62.7282C199.958 63.3628 200.085 63.9974 200.148 64.5685C200.148 64.8858 200.211 65.2031 200.085 65.4569C200.021 65.7107 199.894 66.028 199.831 66.2819V66.3453C200.275 68.5029 200.973 70.4067 201.608 72.12C202.242 73.8334 202.877 75.293 203.448 76.4987C203.955 77.7044 204.463 78.5928 204.844 79.2274C204.971 79.5447 205.161 79.7985 205.225 79.9889C205.352 80.1158 205.352 80.1793 205.415 80.1793C205.415 80.1793 205.352 80.1158 205.288 79.9254C205.161 79.7351 205.034 79.5447 204.907 79.2274C204.527 78.5928 204.082 77.6409 203.511 76.4352C203.004 75.2295 202.369 73.77 201.798 72.0566C201.163 70.3432 200.465 68.4395 200.021 66.2819V66.3453C200.085 66.0915 200.211 65.7742 200.275 65.5204C200.402 65.2031 200.402 64.8858 200.338 64.5685C200.275 63.9339 200.148 63.2993 200.021 62.6647C199.958 62.3474 199.958 62.0301 199.894 61.7129C199.831 61.5859 199.831 61.3956 199.704 61.2052C199.704 61.1417 199.577 61.0783 199.513 61.0148C199.386 60.9514 199.26 60.9514 199.196 61.0148H199.133C199.069 61.0148 199.069 61.0148 199.006 61.0783C198.942 61.1417 198.942 61.1417 198.942 61.2052C198.879 61.3321 198.879 61.3956 198.879 61.459C198.815 61.6494 198.815 61.8398 198.815 61.9667C198.879 62.3474 198.879 62.6647 198.942 62.982C198.942 63.1724 198.942 63.3628 198.942 63.5531C198.942 63.7435 198.942 63.9974 198.942 64.1243C198.942 64.1877 198.879 64.1243 198.942 64.1877V64.1243C198.942 64.1243 198.942 64.1243 198.879 64.1243C198.879 64.0608 198.815 63.9974 198.815 63.9339C198.688 63.7435 198.688 63.5531 198.625 63.3628C198.498 63.0455 198.498 62.6647 198.435 62.284C198.371 61.9032 198.308 61.5225 198.308 61.1417C198.244 60.8244 198.181 60.4437 198.117 60.0629C197.99 59.7456 197.927 59.3649 197.8 59.0476C197.8 58.9841 197.673 58.9207 197.673 58.8572C197.61 58.8572 197.546 58.8572 197.483 58.7938C197.419 58.7938 197.292 58.7938 197.165 58.8572C196.975 58.9841 196.912 59.1745 196.848 59.3649C196.848 59.5553 196.848 59.7456 196.848 59.936C196.912 60.1264 196.912 60.2533 196.912 60.4437C196.975 61.0783 196.975 61.7763 196.975 62.4109C196.975 62.5378 196.912 62.7282 196.912 62.8551C196.912 62.9186 196.848 62.982 196.848 63.0455C196.848 63.1089 196.785 63.1089 196.785 63.1089C196.785 63.1724 196.785 63.1089 196.785 63.1724C196.785 63.1724 196.785 63.1724 196.785 63.1089C196.721 63.1089 196.721 63.1089 196.721 63.0455C196.658 62.982 196.658 62.9186 196.658 62.8551C196.594 62.7282 196.531 62.5378 196.531 62.4109C196.277 61.2686 196.15 60.1264 196.087 59.1111C196.087 58.9207 196.087 58.7303 196.023 58.5399C195.96 58.413 195.96 58.3496 195.833 58.2861C195.769 58.1592 195.642 58.1592 195.579 58.1592C195.389 58.1592 195.325 58.2226 195.262 58.3496C195.135 58.413 195.135 58.5399 195.135 58.6034C195.071 58.8572 195.071 59.0476 195.071 59.238C195.071 59.6187 195.071 59.9995 195.071 60.3168C195.071 61.0148 195.198 61.5859 195.262 62.0301C195.325 62.4744 195.389 62.8551 195.389 63.1089C195.452 63.1724 195.325 63.2993 195.325 63.2993C195.262 63.2993 195.198 63.2993 195.198 63.2993Z" fill="#A36956"/>
<path fill-rule="evenodd" clip-rule="evenodd" d="M205.352 80.1164C205.732 80.3702 206.684 81.2586 206.431 89.191C206.177 89.2544 205.796 89.2544 205.479 89.2544C201.354 89.3813 197.419 83.0989 193.929 68.2496C196.277 68.1227 198.371 67.8689 200.212 66.9805C201.354 71.2322 202.813 75.357 205.352 80.1164Z" fill="#D64D6F"/>
<path fill-rule="evenodd" clip-rule="evenodd" d="M206.494 89.6345H206.431C203.385 90.0787 200.085 86.9693 197.8 81.5753C195.833 76.8794 194.945 73.1353 193.929 68.249C195.452 74.4045 198.816 88.8096 205.923 89.5076C206.113 89.5076 206.304 89.5076 206.494 89.4441V89.6345Z" fill="#263138"/>
<path d="M204.907 84.6853C204.844 84.6853 204.527 83.7334 204.653 82.4642C204.78 81.2585 205.288 80.3701 205.352 80.3701C205.352 80.3701 204.971 81.322 204.844 82.4642C204.717 83.67 204.971 84.6218 204.907 84.6853Z" fill="#263138"/>
</svg>
