<svg width="337" height="268" viewBox="0 0 337 268" fill="none" xmlns="http://www.w3.org/2000/svg">
<path fill-rule="evenodd" clip-rule="evenodd" d="M21 0H289C301 0 310 9 310 21V25H36C31 25 27 29 27 34C27 39 31 43 36 43H310V73C310 84 301 94 289 94H254C242 94 233 103 233 114V154C233 165 242 174 254 174H289C301 174 310 184 310 195V247C310 259 301 268 289 268H21C9 268 0 259 0 247V21C0 9 9 0 21 0Z" fill="black"/>
<path fill-rule="evenodd" clip-rule="evenodd" d="M257 98H319C329 98 337 106 337 116V152C337 162 329 170 319 170H257C247 170 239 162 239 152V116C239 106 247 98 257 98ZM270 121C277 121 282 127 282 134C282 141 277 146 270 146C263 146 257 141 257 134C257 127 263 121 270 121Z" fill="black"/>
</svg>
