<svg width="10" height="6" viewBox="0 0 10 6" fill="current" xmlns="http://www.w3.org/2000/svg">
<path d="M0.195705 0.196495C0.133669 0.258373 0.0844506 0.331883 0.0508684 0.412813C0.0172862 0.493743 6.1337e-08 0.580503 6.02922e-08 0.668125C5.92473e-08 0.755745 0.0172862 0.842505 0.0508684 0.923435C0.0844506 1.00437 0.133669 1.07787 0.195705 1.13975L4.62422 5.56827C4.67353 5.61768 4.73209 5.65687 4.79656 5.68361C4.86102 5.71036 4.93013 5.72412 4.99993 5.72412C5.06972 5.72412 5.13883 5.71036 5.2033 5.68361C5.26777 5.65687 5.32633 5.61768 5.37563 5.56827L9.80416 1.13975C10.0653 0.878626 10.0653 0.457623 9.80416 0.196495C9.54303 -0.0646337 9.12202 -0.0646337 8.8609 0.196495L4.99726 4.0548L1.13363 0.191166C0.877835 -0.0646329 0.451504 -0.0646338 0.195705 0.196495Z" fill="#FA634D"/>
</svg>
