<svg width="76" height="24" viewBox="0 0 76 24" fill="none" xmlns="http://www.w3.org/2000/svg">
<g clip-path="url(#clip0)">
<path d="M10.5588 18.5166C10.2356 18.6788 9.91234 18.7869 9.48137 18.841C9.10427 18.9492 8.6733 18.9492 8.2962 18.9492C8.13459 18.9492 7.9191 18.9492 7.70361 18.8951C7.48813 18.841 7.27264 18.7869 7.05716 18.6247C6.84167 18.5166 6.68006 18.3002 6.51844 18.0839C6.35683 17.8135 6.30296 17.489 6.30296 17.1105V12.5138C6.30296 11.8648 6.24909 11.4322 6.14134 11.2158C6.0336 11.0536 5.76424 10.9455 5.33327 10.9455C5.17166 10.9455 4.95617 10.9995 4.74069 11.0536C4.5252 11.1618 4.30971 11.2158 4.09423 11.3781C3.82487 11.4862 3.60939 11.5944 3.3939 11.7566C3.17841 11.9189 2.96293 12.027 2.80131 12.1352V18.7329H0V8.7282H2.80131V9.86387C3.23229 9.53939 3.71713 9.269 4.25584 8.9986C4.79456 8.7282 5.38714 8.56597 6.0336 8.56597C6.51844 8.56597 6.94941 8.62005 7.32651 8.67412C7.70361 8.78228 8.02684 8.89044 8.2962 9.16084C8.56556 9.37716 8.78104 9.70163 8.94266 10.1343C9.0504 10.5128 9.15814 11.0536 9.15814 11.7566V16.4615C9.15814 16.786 9.31976 16.9483 9.64299 16.9483C9.69686 16.9483 9.8046 16.9483 9.91234 16.9483C10.0201 16.9483 10.1278 16.9483 10.2894 16.8942L10.5588 18.5166ZM17.2389 14.2443C17.0772 14.1902 16.8618 14.1361 16.6463 14.1361C16.4308 14.1361 16.2692 14.1361 16.0537 14.1361C15.2995 14.1361 14.8146 14.2984 14.5453 14.6769C14.3298 15.0014 14.2221 15.3259 14.2221 15.7044C14.2221 16.1911 14.3298 16.4615 14.653 16.6238C14.9224 16.786 15.2456 16.8942 15.5688 16.8942C15.9998 16.8942 16.3769 16.786 16.7001 16.5697C17.0772 16.3534 17.2389 15.9207 17.2389 15.3259V14.2443ZM21.4947 18.4625C21.1176 18.6247 20.7944 18.7329 20.3634 18.7869C19.9863 18.841 19.6092 18.8951 19.1782 18.8951C18.5318 18.8951 18.1008 18.7869 17.8314 18.5166C17.5621 18.2462 17.4005 17.9217 17.2927 17.6513C16.9156 18.0839 16.5385 18.4084 16.1076 18.6247C15.7305 18.7869 15.1917 18.8951 14.4914 18.8951C13.3601 18.8951 12.552 18.6247 12.1211 18.0839C11.6362 17.5431 11.4207 16.8401 11.4207 15.9748C11.4207 15.3259 11.5285 14.7851 11.7978 14.2984C12.0133 13.8657 12.3366 13.5413 12.7675 13.2709C13.1446 13.0005 13.6295 12.7841 14.1682 12.676C14.7069 12.5138 15.2995 12.4597 15.8921 12.4597C16.0537 12.4597 16.323 12.5138 16.5924 12.5138C16.9156 12.5138 17.1311 12.5678 17.2389 12.5678V12.1352C17.2389 11.4862 17.0772 11.1077 16.7001 10.9455C16.3769 10.7832 15.8382 10.6751 15.1379 10.6751C14.4914 10.6751 13.8988 10.7291 13.414 10.8914C12.9291 10.9995 12.4443 11.1077 12.1211 11.2158L12.552 9.05268C13.5217 8.7282 14.5453 8.56597 15.6766 8.56597C16.3769 8.56597 17.0234 8.62005 17.5621 8.7282C18.1008 8.89044 18.5318 9.05268 18.9089 9.32308C19.286 9.59347 19.5553 9.97203 19.7708 10.4587C19.9324 10.9455 20.0402 11.5944 20.0402 12.3515V16.4075C20.0402 16.7319 20.2018 16.8942 20.6328 16.8942C20.7405 16.8942 20.956 16.8942 21.1715 16.8401L21.4947 18.4625ZM27.1512 18.5166C26.828 18.6788 26.4509 18.7869 26.0199 18.841C25.6428 18.9492 25.2657 18.9492 24.8347 18.9492C24.6731 18.9492 24.5115 18.9492 24.296 18.8951C24.0267 18.841 23.865 18.7869 23.6496 18.6247C23.4341 18.5166 23.2725 18.3002 23.1108 18.0839C22.9492 17.8135 22.8954 17.489 22.8954 17.1105V8.7282H25.6967V16.4615C25.6967 16.786 25.8583 16.9483 26.2354 16.9483C26.397 16.9483 26.6125 16.9483 26.828 16.8942L27.1512 18.5166ZM25.9122 5.862C25.9122 6.34872 25.7505 6.72727 25.4273 7.05175C25.1041 7.37622 24.727 7.53846 24.296 7.53846C23.865 7.53846 23.4879 7.37622 23.1108 7.05175C22.7876 6.72727 22.626 6.34872 22.626 5.862C22.626 5.42937 22.7876 4.99673 23.1108 4.67226C23.4879 4.40186 23.865 4.23962 24.296 4.23962C24.727 4.23962 25.1041 4.40186 25.4273 4.67226C25.7505 4.99673 25.9122 5.42937 25.9122 5.862ZM28.6057 16.2993C28.929 16.4615 29.3061 16.5697 29.8448 16.7319C30.3835 16.8401 30.8145 16.8942 31.1916 16.8942C31.6764 16.8942 32.0535 16.8401 32.4845 16.7319C32.8616 16.6238 33.0771 16.3534 33.0771 15.9207C33.0771 15.6504 32.9693 15.38 32.7538 15.2177C32.4845 15.0014 32.2151 14.8392 31.8919 14.6769C31.5687 14.5688 31.1916 14.4065 30.8145 14.2443C30.3835 14.0821 30.0064 13.9198 29.6832 13.6494C29.3599 13.4331 29.0906 13.1086 28.8751 12.7301C28.6057 12.4056 28.498 11.9189 28.498 11.324C28.498 10.7832 28.6057 10.3506 28.8751 9.97203C29.0906 9.64755 29.4138 9.37716 29.7909 9.16084C30.2219 8.94452 30.6528 8.78228 31.1377 8.7282C31.6225 8.62005 32.1074 8.56597 32.5383 8.56597C32.9154 8.56597 33.2925 8.62005 33.6158 8.67412C33.9929 8.67412 34.3161 8.7282 34.5855 8.78228C34.8548 8.83636 35.0703 8.89044 35.2319 8.94452C35.4474 8.9986 35.5551 9.05268 35.5551 9.05268L35.1242 11.2158C35.0703 11.1618 34.9626 11.1077 34.8009 11.0536C34.6393 10.9455 34.4238 10.8914 34.2084 10.7832C34.0467 10.7291 33.7774 10.6751 33.5619 10.621C33.2925 10.5669 33.0232 10.5669 32.8077 10.5669C31.7841 10.5669 31.2454 10.8373 31.2454 11.324C31.2454 11.5944 31.407 11.7566 31.6225 11.9189C31.838 12.0811 32.1074 12.2434 32.4845 12.4056C32.8077 12.5138 33.1309 12.676 33.5619 12.8382C33.939 13.0005 34.3161 13.1627 34.6393 13.4331C34.9626 13.7035 35.2858 13.9739 35.5013 14.3524C35.7168 14.7851 35.8245 15.2177 35.8245 15.8126C35.8245 16.2993 35.7168 16.7319 35.5013 17.1105C35.3397 17.489 35.0164 17.8135 34.6393 18.0839C34.2622 18.3543 33.8313 18.5706 33.3464 18.6788C32.8616 18.841 32.3229 18.8951 31.7303 18.8951C30.8145 18.8951 30.0603 18.841 29.5215 18.7869C28.929 18.6788 28.498 18.5706 28.1748 18.4625L28.6057 16.2993ZM48.3227 18.5166C47.9994 18.6788 47.6223 18.7869 47.1914 18.841C46.8143 18.9492 46.3833 18.9492 46.0062 18.9492C45.8446 18.9492 45.683 18.9492 45.4675 18.8951C45.252 18.841 45.0365 18.7869 44.821 18.6247C44.6055 18.5166 44.3901 18.3002 44.2823 18.0839C44.1207 17.8135 44.013 17.489 44.013 17.1105V12.5138C44.013 11.8648 43.9591 11.4322 43.8513 11.2158C43.7436 11.0536 43.4742 10.9455 43.0433 10.9455C42.8817 10.9455 42.72 10.9995 42.5046 11.0536C42.2352 11.1618 42.0197 11.2158 41.8042 11.3781C41.5887 11.4862 41.3194 11.5944 41.1039 11.7566C40.8884 11.9189 40.7268 12.027 40.5652 12.1352V18.7329H37.71V4.67226H40.5652V9.86387C40.6729 9.75571 40.8345 9.64755 41.05 9.53939C41.2116 9.37715 41.481 9.269 41.7504 9.10676C42.0197 8.94452 42.3429 8.83636 42.6662 8.7282C43.0433 8.62005 43.3665 8.56597 43.7436 8.56597C44.2284 8.56597 44.6594 8.62005 45.0365 8.67412C45.4675 8.78228 45.7907 8.89044 46.0601 9.16084C46.3294 9.37716 46.491 9.70163 46.6527 10.1343C46.8143 10.5128 46.8681 11.0536 46.8681 11.7566V16.4615C46.8681 16.786 47.0298 16.9483 47.4607 16.9483C47.5685 16.9483 47.784 16.9483 47.9994 16.8942L48.3227 18.5166ZM54.9489 14.2443C54.7872 14.1902 54.6256 14.1361 54.4101 14.1361C54.1947 14.1361 53.9792 14.1361 53.8176 14.1361C53.0634 14.1361 52.5246 14.2984 52.3092 14.6769C52.0398 15.0014 51.9321 15.3259 51.9321 15.7044C51.9321 16.1911 52.0937 16.4615 52.363 16.6238C52.6863 16.786 52.9556 16.8942 53.2788 16.8942C53.7098 16.8942 54.0869 16.786 54.464 16.5697C54.7872 16.3534 54.9489 15.9207 54.9489 15.3259V14.2443ZM59.2047 18.4625C58.8815 18.6247 58.5044 18.7329 58.1273 18.7869C57.7502 18.841 57.3192 18.8951 56.9421 18.8951C56.2956 18.8951 55.8108 18.7869 55.5953 18.5166C55.326 18.2462 55.1105 17.9217 55.0566 17.6513C54.6795 18.0839 54.2485 18.4084 53.8714 18.6247C53.4405 18.7869 52.9017 18.8951 52.2553 18.8951C51.124 18.8951 50.3159 18.6247 49.8311 18.0839C49.4001 17.5431 49.1307 16.8401 49.1307 15.9748C49.1307 15.3259 49.2924 14.7851 49.5078 14.2984C49.7233 13.8657 50.0466 13.5413 50.4775 13.2709C50.9085 13.0005 51.3933 12.7841 51.9321 12.676C52.4708 12.5138 53.0095 12.4597 53.6021 12.4597C53.8176 12.4597 54.033 12.5138 54.3563 12.5138C54.6256 12.5138 54.8411 12.5678 54.9489 12.5678V12.1352C54.9489 11.4862 54.7872 11.1077 54.464 10.9455C54.0869 10.7832 53.5482 10.6751 52.8479 10.6751C52.2553 10.6751 51.6627 10.7291 51.124 10.8914C50.6391 10.9995 50.2082 11.1077 49.8311 11.2158L50.262 9.05268C51.2317 8.7282 52.2553 8.56597 53.3866 8.56597C54.0869 8.56597 54.7334 8.62005 55.2721 8.7282C55.8108 8.89044 56.2956 9.05268 56.6189 9.32308C56.996 9.59347 57.3192 9.97203 57.4808 10.4587C57.6963 10.9455 57.7502 11.5944 57.7502 12.3515V16.4075C57.7502 16.7319 57.9657 16.8942 58.3428 16.8942C58.5044 16.8942 58.666 16.8942 58.9353 16.8401L59.2047 18.4625Z" fill="#F969AE"/>
<path fill-rule="evenodd" clip-rule="evenodd" d="M63.4067 23.9785C63.7838 20.9501 68.7938 17.5972 71.5412 16.083C74.0193 14.6769 75.0429 12.7841 75.0968 9.86385C75.0968 8.45779 74.9351 5.80791 74.3426 4.67224C74.3426 6.29462 72.9419 7.80884 71.8106 8.83634C69.6019 10.8914 65.3999 11.8107 63.1912 16.6238C62.3292 18.4625 62.1138 22.3021 63.4067 23.9785Z" fill="#74D6D6"/>
<path fill-rule="evenodd" clip-rule="evenodd" d="M63.1912 9.43122C64.2147 7.10581 65.1844 5.37527 67.3393 3.91513C69.4403 2.50907 71.8106 1.69788 74.0732 3.2121C73.9655 2.02236 72.4571 0.0214233 70.5716 0.0214233C69.1709 0.0214233 68.0935 0.29182 67.0161 0.99485C64.2686 2.67131 63.1912 5.86199 63.1912 9.43122Z" fill="#74D6D6"/>
<path fill-rule="evenodd" clip-rule="evenodd" d="M65.2383 6.99765C66.7467 6.07831 70.8948 3.7529 73.3729 3.7529C72.9958 3.21211 72.1877 2.99579 71.4335 2.99579C68.6322 2.99579 65.7232 6.13239 65.2383 6.99765Z" fill="#F969AE"/>
</g>
<defs>
<clipPath id="clip0">
<rect width="75.0968" height="24" fill="white"/>
</clipPath>
</defs>
</svg>
