<svg width="213" height="213" viewBox="0 0 213 213" fill="none" xmlns="http://www.w3.org/2000/svg">
<rect width="213" height="213" fill="#E9E9E9" fill-opacity="0.67"/>
<path d="M86.8797 76.6654C86.7825 76.74 86.6852 76.8147 86.6366 76.8893L64.2968 102.004V55.8506L56.7314 48.8775V127.209C56.7314 129.165 58.4486 130.658 60.5708 130.658H145.443L86.8797 76.6654Z" fill="#A3A3A3"/>
<path d="M149.703 44.9803V98.0177L144.26 90.4772C142.332 87.7895 138.995 86.2067 135.577 86.2067H135.48C132.061 86.2067 128.821 87.7895 126.796 90.5817L126.31 91.2536L157.269 119.788V41.4565C157.269 39.59 155.665 38.0072 153.526 38.0072H68.5413L76.1067 44.9803H149.703Z" fill="#A3A3A3"/>
<path d="M129.122 70.83C132.817 67.4246 132.817 61.9034 129.122 58.498C125.428 55.0926 119.437 55.0926 115.743 58.498C112.048 61.9034 112.048 67.4246 115.743 70.83C119.437 74.2353 125.428 74.2353 129.122 70.83Z" fill="#A3A3A3"/>
<path d="M164.672 142.932C165.482 143.679 166.551 144.067 167.62 144.067C168.69 144.067 169.759 143.694 170.569 142.932C172.205 141.424 172.205 138.99 170.569 137.497L49.3279 25.7483C47.6917 24.2402 45.0511 24.2402 43.4311 25.7483C41.7949 27.2564 41.7949 29.6903 43.4311 31.1835L164.672 142.932Z" fill="#A3A3A3"/>
<path d="M68.42 172.005H65.342L60.194 164.211V172.005H57.116V159.369H60.194L65.342 167.199V159.369H68.42V172.005ZM76.9332 172.149C75.9492 172.149 75.0612 171.939 74.2692 171.519C73.4892 171.099 72.8712 170.499 72.4152 169.719C71.9712 168.939 71.7492 168.027 71.7492 166.983C71.7492 165.951 71.9772 165.045 72.4332 164.265C72.8892 163.473 73.5132 162.867 74.3052 162.447C75.0972 162.027 75.9852 161.817 76.9692 161.817C77.9532 161.817 78.8412 162.027 79.6332 162.447C80.4252 162.867 81.0492 163.473 81.5052 164.265C81.9612 165.045 82.1892 165.951 82.1892 166.983C82.1892 168.015 81.9552 168.927 81.4872 169.719C81.0312 170.499 80.4012 171.099 79.5972 171.519C78.8052 171.939 77.9172 172.149 76.9332 172.149ZM76.9332 169.485C77.5212 169.485 78.0192 169.269 78.4272 168.837C78.8472 168.405 79.0572 167.787 79.0572 166.983C79.0572 166.179 78.8532 165.561 78.4452 165.129C78.0492 164.697 77.5572 164.481 76.9692 164.481C76.3692 164.481 75.8712 164.697 75.4752 165.129C75.0792 165.549 74.8812 166.167 74.8812 166.983C74.8812 167.787 75.0732 168.405 75.4572 168.837C75.8532 169.269 76.3452 169.485 76.9332 169.485ZM94.1345 159.369V172.005H91.0565V159.369H94.1345ZM110.891 161.853C112.139 161.853 113.129 162.231 113.861 162.987C114.605 163.743 114.977 164.793 114.977 166.137V172.005H111.917V166.551C111.917 165.903 111.743 165.405 111.395 165.057C111.059 164.697 110.591 164.517 109.991 164.517C109.391 164.517 108.917 164.697 108.569 165.057C108.233 165.405 108.065 165.903 108.065 166.551V172.005H105.005V166.551C105.005 165.903 104.831 165.405 104.483 165.057C104.147 164.697 103.679 164.517 103.079 164.517C102.479 164.517 102.005 164.697 101.657 165.057C101.321 165.405 101.153 165.903 101.153 166.551V172.005H98.0751V161.961H101.153V163.221C101.465 162.801 101.873 162.471 102.377 162.231C102.881 161.979 103.451 161.853 104.087 161.853C104.843 161.853 105.515 162.015 106.103 162.339C106.703 162.663 107.171 163.125 107.507 163.725C107.855 163.173 108.329 162.723 108.929 162.375C109.529 162.027 110.183 161.853 110.891 161.853ZM118.228 166.965C118.228 165.933 118.42 165.027 118.804 164.247C119.2 163.467 119.734 162.867 120.406 162.447C121.078 162.027 121.828 161.817 122.656 161.817C123.364 161.817 123.982 161.961 124.51 162.249C125.05 162.537 125.464 162.915 125.752 163.383V161.961H128.83V172.005H125.752V170.583C125.452 171.051 125.032 171.429 124.492 171.717C123.964 172.005 123.346 172.149 122.638 172.149C121.822 172.149 121.078 171.939 120.406 171.519C119.734 171.087 119.2 170.481 118.804 169.701C118.42 168.909 118.228 167.997 118.228 166.965ZM125.752 166.983C125.752 166.215 125.536 165.609 125.104 165.165C124.684 164.721 124.168 164.499 123.556 164.499C122.944 164.499 122.422 164.721 121.99 165.165C121.57 165.597 121.36 166.197 121.36 166.965C121.36 167.733 121.57 168.345 121.99 168.801C122.422 169.245 122.944 169.467 123.556 169.467C124.168 169.467 124.684 169.245 125.104 168.801C125.536 168.357 125.752 167.751 125.752 166.983ZM136.583 161.817C137.291 161.817 137.909 161.961 138.437 162.249C138.977 162.537 139.391 162.915 139.679 163.383V161.961H142.757V171.987C142.757 172.911 142.571 173.745 142.199 174.489C141.839 175.245 141.281 175.845 140.525 176.289C139.781 176.733 138.851 176.955 137.735 176.955C136.247 176.955 135.041 176.601 134.117 175.893C133.193 175.197 132.665 174.249 132.533 173.049H135.575C135.671 173.433 135.899 173.733 136.259 173.949C136.619 174.177 137.063 174.291 137.591 174.291C138.227 174.291 138.731 174.105 139.103 173.733C139.487 173.373 139.679 172.791 139.679 171.987V170.565C139.379 171.033 138.965 171.417 138.437 171.717C137.909 172.005 137.291 172.149 136.583 172.149C135.755 172.149 135.005 171.939 134.333 171.519C133.661 171.087 133.127 170.481 132.731 169.701C132.347 168.909 132.155 167.997 132.155 166.965C132.155 165.933 132.347 165.027 132.731 164.247C133.127 163.467 133.661 162.867 134.333 162.447C135.005 162.027 135.755 161.817 136.583 161.817ZM139.679 166.983C139.679 166.215 139.463 165.609 139.031 165.165C138.611 164.721 138.095 164.499 137.483 164.499C136.871 164.499 136.349 164.721 135.917 165.165C135.497 165.597 135.287 166.197 135.287 166.965C135.287 167.733 135.497 168.345 135.917 168.801C136.349 169.245 136.871 169.467 137.483 169.467C138.095 169.467 138.611 169.245 139.031 168.801C139.463 168.357 139.679 167.751 139.679 166.983ZM156.161 166.821C156.161 167.109 156.143 167.409 156.107 167.721H149.141C149.189 168.345 149.387 168.825 149.735 169.161C150.095 169.485 150.533 169.647 151.049 169.647C151.817 169.647 152.351 169.323 152.651 168.675H155.927C155.759 169.335 155.453 169.929 155.009 170.457C154.577 170.985 154.031 171.399 153.371 171.699C152.711 171.999 151.973 172.149 151.157 172.149C150.173 172.149 149.297 171.939 148.529 171.519C147.761 171.099 147.161 170.499 146.729 169.719C146.297 168.939 146.081 168.027 146.081 166.983C146.081 165.939 146.291 165.027 146.711 164.247C147.143 163.467 147.743 162.867 148.511 162.447C149.279 162.027 150.161 161.817 151.157 161.817C152.129 161.817 152.993 162.021 153.749 162.429C154.505 162.837 155.093 163.419 155.513 164.175C155.945 164.931 156.161 165.813 156.161 166.821ZM153.011 166.011C153.011 165.483 152.831 165.063 152.471 164.751C152.111 164.439 151.661 164.283 151.121 164.283C150.605 164.283 150.167 164.433 149.807 164.733C149.459 165.033 149.243 165.459 149.159 166.011H153.011Z" fill="#A9A9A9"/>
</svg>
