<svg width="25" height="25" viewBox="0 0 25 25" fill="none" xmlns="http://www.w3.org/2000/svg">
<g clip-path="url(#clip0_580_5654)">
<path d="M24.5625 8.66262C24.1968 8.23598 23.6483 7.96171 23.0997 7.96171H21.576L15.6944 0.708749C15.3287 0.25163 14.6888 0.160206 14.2012 0.495427C13.744 0.861122 13.6526 1.50109 13.9878 1.98868C13.9878 2.01916 14.0183 2.01916 14.0183 2.04963L18.8638 7.96171H5.82065L10.6356 2.04963C11.0318 1.62299 11.0013 0.952546 10.5747 0.556376C10.148 0.160206 9.4776 0.190681 9.08143 0.617325C9.05095 0.6478 9.02048 0.678275 8.99001 0.708749L3.10841 7.99218H1.88942C0.853289 7.99218 0 8.84547 0 9.88161C0 10.0035 0 10.1254 0.0304746 10.2473L2.46844 22.5286C2.71224 23.8085 3.8398 24.7227 5.15021 24.7227H19.839C21.1494 24.7227 22.2769 23.8085 22.5207 22.5286L24.9587 10.2473C25.0806 9.69876 24.9282 9.11974 24.5625 8.66262ZM9.32523 18.6278C9.32523 19.2068 8.83763 19.6944 8.25862 19.6944C7.6796 19.6944 7.192 19.2068 7.192 18.6278V14.3004C7.192 13.7214 7.6796 13.2338 8.25862 13.2338C8.83763 13.2338 9.32523 13.7214 9.32523 14.3004V18.6278ZM13.5612 18.6278C13.5612 19.2068 13.0736 19.6944 12.4946 19.6944C11.9156 19.6944 11.428 19.2068 11.428 18.6278V14.3004C11.428 13.7214 11.9156 13.2338 12.4946 13.2338C13.0736 13.2338 13.5612 13.7214 13.5612 14.3004V18.6278ZM17.7667 18.6278C17.7667 19.2068 17.2791 19.6944 16.7001 19.6944C16.1211 19.6944 15.6335 19.2068 15.6335 18.6278V14.3004C15.6335 13.7214 16.1211 13.2338 16.7001 13.2338C17.2791 13.2338 17.7667 13.7214 17.7667 14.3004V18.6278Z" fill="url(#paint0_linear_580_5654)"/>
</g>
<defs>
<linearGradient id="paint0_linear_580_5654" x1="-7.14657e-07" y1="24.7227" x2="17.8884" y2="28.3312" gradientUnits="userSpaceOnUse">
<stop stop-color="#F8819E"/>
<stop offset="1" stop-color="#FF7597"/>
</linearGradient>
<clipPath id="clip0_580_5654">
<rect width="25" height="25" fill="white"/>
</clipPath>
</defs>
</svg>
