<svg width="54" height="54" viewBox="0 0 54 54" fill="none" xmlns="http://www.w3.org/2000/svg">
<rect x="1" y="1" width="52" height="52" rx="4" stroke="#C7CAD9" stroke-width="0.7"/>
<path fill-rule="evenodd" clip-rule="evenodd" d="M34.0714 34.0699C31.0152 37.1263 26.4898 37.7867 22.7864 36.074C22.2397 35.8539 21.7915 35.676 21.3654 35.676C20.1785 35.683 18.7012 36.8339 17.9334 36.067C17.1656 35.2991 18.3173 33.8206 18.3173 32.6266C18.3173 32.2004 18.1464 31.7602 17.9263 31.2124C16.2128 27.5096 16.8741 22.9827 19.9303 19.9272C23.8316 16.0244 30.17 16.0244 34.0714 19.9262C37.9797 23.835 37.9727 30.1681 34.0714 34.0699Z" stroke="#222741" stroke-width="1.5" stroke-linecap="round" stroke-linejoin="round"/>
<path d="M30.9393 27.4121H30.9483" stroke="#222741" stroke-width="2" stroke-linecap="round" stroke-linejoin="round"/>
<path d="M26.9306 27.4121H26.9396" stroke="#222741" stroke-width="2" stroke-linecap="round" stroke-linejoin="round"/>
<path d="M22.9213 27.4121H22.9303" stroke="#222741" stroke-width="2" stroke-linecap="round" stroke-linejoin="round"/>
</svg>
