<svg width="28" height="28" viewBox="0 0 28 28" fill="none" xmlns="http://www.w3.org/2000/svg">
<path d="M16.1389 7.77789C17.8572 7.77789 19.2501 6.38499 19.2501 4.66677C19.2501 2.94856 17.8572 1.55566 16.1389 1.55566C14.4207 1.55566 13.0278 2.94856 13.0278 4.66677C13.0278 6.38499 14.4207 7.77789 16.1389 7.77789Z" fill="white"/>
<path d="M19.32 20.4016C19.234 20.3438 19.1374 20.3037 19.0358 20.2838C18.9341 20.2638 18.8295 20.2644 18.7281 20.2854C18.6267 20.3064 18.5305 20.3474 18.4451 20.4061C18.3598 20.4648 18.287 20.54 18.2311 20.6272C17.4792 21.7407 16.5581 22.73 15.5011 23.5594C15.2444 23.7538 14.2878 24.4927 13.8833 24.3372C13.6033 24.2516 13.7667 23.6994 13.8211 23.4661L14.2333 22.245C14.4044 21.7472 17.3833 12.9116 17.71 11.9005C18.1922 10.4227 17.9822 8.96829 15.7811 9.31829C15.1822 9.38052 9.10777 10.1661 8.99888 10.1739C8.89674 10.1805 8.79691 10.2072 8.70509 10.2524C8.61327 10.2976 8.53125 10.3605 8.46372 10.4374C8.39619 10.5143 8.34447 10.6038 8.31152 10.7007C8.27857 10.7976 8.26502 10.9 8.27166 11.0022C8.2783 11.1043 8.30499 11.2042 8.35021 11.296C8.39543 11.3878 8.4583 11.4698 8.53521 11.5373C8.61213 11.6049 8.7016 11.6566 8.7985 11.6895C8.89541 11.7225 8.99785 11.736 9.09999 11.7294C9.09999 11.7294 11.4333 11.4261 11.69 11.4027C11.8215 11.3899 11.9538 11.4154 12.0711 11.4761C12.1885 11.5368 12.2857 11.6302 12.3511 11.745C12.492 12.1806 12.4727 12.6523 12.2967 13.075C12.0944 13.8527 8.89777 22.8594 8.79666 23.3805C8.68821 23.8166 8.71832 24.2756 8.8828 24.6938C9.04729 25.112 9.33797 25.4685 9.71444 25.7139C10.4211 26.1848 11.2624 26.4115 12.11 26.3594C12.9341 26.3493 13.7491 26.1858 14.5133 25.8772C16.45 25.0994 18.4722 23.0305 19.5378 21.405C19.6295 21.2398 19.658 21.0469 19.618 20.8623C19.5779 20.6776 19.472 20.5139 19.32 20.4016Z" fill="white"/>
</svg>
