<svg width="375" height="119" viewBox="0 0 375 119" fill="none" xmlns="http://www.w3.org/2000/svg">
<g filter="url(#filter0_d_446_4281)">
<path fill-rule="evenodd" clip-rule="evenodd" d="M52 36C52 33.7909 53.7909 32 56 32H351C353.209 32 355 33.7909 355 36V39.05C354.838 39.0172 354.671 39 354.5 39C353.119 39 352 40.1193 352 41.5C352 42.8807 353.119 44 354.5 44C354.671 44 354.838 43.9828 355 43.95V46.05C354.838 46.0172 354.671 46 354.5 46C353.119 46 352 47.1193 352 48.5C352 49.8807 353.119 51 354.5 51C354.671 51 354.838 50.9828 355 50.95V53.05C354.838 53.0172 354.671 53 354.5 53C353.119 53 352 54.1193 352 55.5C352 56.8807 353.119 58 354.5 58C354.671 58 354.838 57.9828 355 57.95V60.05C354.838 60.0172 354.671 60 354.5 60C353.119 60 352 61.1193 352 62.5C352 63.8807 353.119 65 354.5 65C354.671 65 354.838 64.9828 355 64.95V67C355 69.2091 353.209 71 351 71H56C53.7909 71 52 69.2091 52 67V36Z" fill="url(#paint0_linear_446_4281)"/>
<path fill-rule="evenodd" clip-rule="evenodd" d="M24 32C21.7909 32 20 33.7909 20 36V67C20 69.2091 21.7909 71 24 71H60V61C64.9706 61 69 56.9706 69 52C69 47.0294 64.9706 43 60 43V32H24Z" fill="url(#paint1_linear_446_4281)"/>
<path d="M46.5 52.5C46.5 51.12 47.62 50 49 50V49C49 45 48 44 44 44H34C30 44 29 45 29 49V49.5C30.38 49.5 31.5 50.62 31.5 52C31.5 53.38 30.38 54.5 29 54.5V55C29 59 30 60 34 60H44C48 60 49 59 49 55C47.62 55 46.5 53.88 46.5 52.5Z" stroke="white" stroke-width="1.5" stroke-linecap="round" stroke-linejoin="round"/>
<path d="M36 54.75L42 48.75" stroke="white" stroke-width="1.5" stroke-linecap="round" stroke-linejoin="round"/>
<path d="M41.9945 54.75H42.0035" stroke="white" stroke-width="2" stroke-linecap="round" stroke-linejoin="round"/>
<path d="M35.9945 49.25H36.0035" stroke="white" stroke-width="2" stroke-linecap="round" stroke-linejoin="round"/>
<path d="M321.729 45.9577L327.271 51.4993L321.729 57.041" stroke="white" stroke-width="1.5" stroke-linecap="round" stroke-linejoin="round"/>
</g>
<defs>
<filter id="filter0_d_446_4281" x="-20" y="0" width="415" height="119" filterUnits="userSpaceOnUse" color-interpolation-filters="sRGB">
<feFlood flood-opacity="0" result="BackgroundImageFix"/>
<feColorMatrix in="SourceAlpha" type="matrix" values="0 0 0 0 0 0 0 0 0 0 0 0 0 0 0 0 0 0 127 0" result="hardAlpha"/>
<feOffset dy="8"/>
<feGaussianBlur stdDeviation="20"/>
<feComposite in2="hardAlpha" operator="out"/>
<feColorMatrix type="matrix" values="0 0 0 0 0 0 0 0 0 0 0 0 0 0 0 0 0 0 0.1 0"/>
<feBlend mode="normal" in2="BackgroundImageFix" result="effect1_dropShadow_446_4281"/>
<feBlend mode="normal" in="SourceGraphic" in2="effect1_dropShadow_446_4281" result="shape"/>
</filter>
<linearGradient id="paint0_linear_446_4281" x1="437.063" y1="32" x2="134.698" y2="-351.955" gradientUnits="userSpaceOnUse">
<stop stop-color="#863ED5"/>
<stop offset="1" stop-color="#2EB5BF"/>
</linearGradient>
<linearGradient id="paint1_linear_446_4281" x1="20" y1="71" x2="54.3767" y2="79.5192" gradientUnits="userSpaceOnUse">
<stop stop-color="#F8819E"/>
<stop offset="1" stop-color="#FF7597"/>
</linearGradient>
</defs>
</svg>
