<svg width="56" height="56" viewBox="0 0 56 56" fill="none" xmlns="http://www.w3.org/2000/svg">
<g filter="url(#filter0_b_332_4187)">
<rect width="56" height="56" rx="18" fill="url(#paint0_radial_332_4187)"/>
<rect x="0.5" y="0.5" width="55" height="55" rx="17.5" stroke="url(#paint1_radial_332_4187)"/>
<rect x="0.5" y="0.5" width="55" height="55" rx="17.5" stroke="url(#paint2_radial_332_4187)"/>
<rect x="0.5" y="0.5" width="55" height="55" rx="17.5" stroke="url(#paint3_linear_332_4187)"/>
</g>
<g clip-path="url(#clip0_332_4187)">
<path d="M40.4618 17.3667L40.9327 18.2782C40.9641 18.3107 40.9955 18.3433 41.0269 18.3758L41.9058 18.8641C42.0627 18.9618 42.0627 19.1571 41.9058 19.2547L41.0269 19.743C40.9955 19.7756 40.9641 19.8081 40.9327 19.8407L40.4618 20.7521C40.3677 20.9149 40.1793 20.9149 40.0852 20.7521L39.6143 19.8407C39.5829 19.8081 39.5515 19.7756 39.5201 19.743L38.6412 19.2547C38.4843 19.1571 38.4843 18.9292 38.6412 18.8316L39.5201 18.3433C39.5515 18.3107 39.5829 18.2782 39.6143 18.2456L40.0852 17.3342C40.1479 17.204 40.3677 17.204 40.4618 17.3667Z" fill="url(#paint4_linear_332_4187)"/>
<path d="M20.6548 35.6621L21.0001 36.3131C21.0001 36.3457 21.0314 36.3783 21.0628 36.3783L21.6906 36.7363C21.7848 36.8014 21.7848 36.9642 21.6906 37.0293L21.0628 37.3874C21.0314 37.3874 21.0001 37.4199 21.0001 37.4525L20.6548 38.1035C20.592 38.2012 20.435 38.2012 20.3722 38.1035L20.027 37.4525C20.027 37.4199 19.9956 37.3874 19.9642 37.3874L19.3364 37.0293C19.2422 36.9642 19.2422 36.8014 19.3364 36.7363L19.9642 36.3783C19.9956 36.3783 20.027 36.3457 20.027 36.3131L20.3722 35.6621C20.4664 35.5319 20.592 35.5319 20.6548 35.6621Z" fill="url(#paint5_linear_332_4187)"/>
<path d="M16.9193 37.5166L17.3901 38.4281C17.4215 38.4606 17.4529 38.4932 17.4843 38.5257L18.3632 39.014C18.5202 39.1117 18.5202 39.307 18.3632 39.4046L17.4843 39.8929C17.4529 39.9255 17.4215 39.958 17.3901 39.9906L16.9193 40.902C16.8251 41.0648 16.6368 41.0648 16.5426 40.902L16.0718 39.9906C16.0404 39.958 16.009 39.9255 15.9776 39.8929L15.0987 39.4046C14.9417 39.307 14.9417 39.1117 15.0987 39.014L15.9776 38.5257C16.009 38.4932 16.0404 38.4606 16.0718 38.4281L16.5426 37.5166C16.6368 37.3538 16.8565 37.3538 16.9193 37.5166Z" fill="url(#paint6_linear_332_4187)"/>
<path d="M34.7175 23.8451C34.7175 22.5104 35.565 21.4036 36.7265 21.013V17.2695C36.7265 16.5859 36.1928 16 35.5022 16H15.2242C14.5336 16 14 16.5534 14 17.2695V21.013C15.1614 21.4036 16.009 22.5104 16.009 23.8451C16.009 25.1797 15.1614 26.2865 14 26.7096V30.4531C14 31.1367 14.5336 31.7227 15.2242 31.7227H35.5022C36.1614 31.7227 36.7265 31.1693 36.7265 30.4531V26.7096C35.565 26.2865 34.7175 25.1797 34.7175 23.8451Z" fill="url(#paint7_linear_332_4187)"/>
<path d="M20.3408 16H15.2242C14.5336 16 14 16.5534 14 17.2695V21.013C15.1614 21.4036 16.009 22.5104 16.009 23.8451C16.009 25.1797 15.1614 26.2865 14 26.7096V30.4531C14 31.1367 14.5336 31.7227 15.2242 31.7227H20.3722V16H20.3408Z" fill="url(#paint8_linear_332_4187)"/>
<path d="M20.843 16H19.8699V17.6602H20.843V16Z" fill="white"/>
<path d="M20.843 27.8496H19.8699V24.9525H20.843V27.8496ZM20.843 22.7389H19.8699V19.8418H20.843V22.7389Z" fill="white"/>
<path d="M20.843 30.0625H19.8699V31.7227H20.843V30.0625Z" fill="white"/>
<path d="M29.444 18.9629H24.0135V19.972H29.444V18.9629Z" fill="white"/>
<path d="M31.139 22.1191H24.0135V23.1283H31.139V22.1191Z" fill="white"/>
<path d="M34.2467 27.1318L34.8745 27.8805C35.1256 28.1735 35.4709 28.2712 35.8162 28.2061L36.7265 27.9782C37.2915 27.848 37.8566 28.2712 37.9193 28.8571L38.0135 29.8337C38.0449 30.1917 38.2646 30.5173 38.6099 30.68L39.4888 31.0706C40.0225 31.2985 40.2422 31.9821 39.9283 32.5029L39.4261 33.3493C39.2377 33.6748 39.2377 34.0654 39.4261 34.3909L39.8969 35.2373C40.2108 35.7581 39.9911 36.4417 39.4575 36.6696L38.5785 37.0602C38.2646 37.223 38.0135 37.5159 37.9821 37.9066L37.8879 38.8831C37.8252 39.5016 37.2601 39.9248 36.6951 39.762L35.7848 39.5342C35.4395 39.4365 35.0628 39.5667 34.8431 39.8597L34.2153 40.6084C33.8386 41.0641 33.148 41.0641 32.74 40.6084L32.1122 39.8597C31.861 39.5667 31.5158 39.4691 31.1705 39.5342L30.2601 39.762C29.6951 39.8922 29.1301 39.4691 29.0673 38.8831L28.9732 37.9066C28.9418 37.5485 28.722 37.223 28.3767 37.0602L27.4978 36.6696C26.9642 36.4417 26.7445 35.7581 27.0584 35.2373L27.5292 34.3909C27.7175 34.0654 27.7175 33.6748 27.5292 33.3493L27.0584 32.5029C26.7445 31.9821 26.9642 31.2985 27.4978 31.0706L28.3767 30.68C28.6906 30.5173 28.9418 30.2243 28.9732 29.8337L29.0673 28.8571C29.1301 28.2386 29.6951 27.8154 30.2601 27.9782L31.1705 28.2061C31.5158 28.3037 31.8924 28.1735 32.1122 27.8805L32.74 27.1318C33.148 26.6436 33.8386 26.6436 34.2467 27.1318Z" fill="url(#paint9_linear_332_4187)"/>
<path d="M34.7423 30.7934L31.5919 36.5371L32.274 36.9395L35.4244 31.1957L34.7423 30.7934Z" fill="white"/>
<path d="M31.9237 33.1866C31.3273 33.1866 30.8251 32.6983 30.7937 32.0799C30.7623 31.7543 30.8879 31.4614 31.0762 31.2335C31.2645 31.0056 31.5471 30.8429 31.861 30.8429C32.1749 30.8103 32.4574 30.9405 32.6771 31.1358C32.8968 31.3312 33.0538 31.6241 33.0538 31.9496C33.0852 32.6007 32.6143 33.1541 31.9865 33.1866C31.9551 33.1866 31.9237 33.1866 31.9237 33.1866ZM31.9237 31.6241C31.8923 31.6241 31.8923 31.6241 31.9237 31.6241C31.7982 31.6241 31.704 31.6892 31.6412 31.7543C31.5784 31.8194 31.5471 31.9171 31.5471 32.0148C31.5471 32.2101 31.7354 32.3728 31.9237 32.3728C32.1121 32.3728 32.269 32.1775 32.269 31.9822C32.269 31.8845 32.2062 31.7869 32.1435 31.7218C32.0807 31.6567 31.9865 31.6241 31.9237 31.6241Z" fill="white"/>
<path d="M35.1254 36.8976C34.8429 36.8976 34.5918 36.7999 34.372 36.6046C34.1523 36.4093 33.9953 36.1163 33.9953 35.7908C33.964 35.4653 34.0895 35.1723 34.2779 34.9444C34.4662 34.7166 34.7487 34.5538 35.0626 34.5538C35.3765 34.5213 35.659 34.6515 35.8788 34.8468C36.0985 35.0421 36.2554 35.3351 36.2554 35.6606C36.2868 35.9861 36.1613 36.2791 35.9729 36.5069C35.7846 36.7348 35.5021 36.8976 35.1882 36.8976C35.1568 36.8976 35.1568 36.8976 35.1254 36.8976ZM35.1254 35.3351C34.9998 35.3351 34.9057 35.4002 34.8429 35.4653C34.7801 35.5304 34.7487 35.628 34.7487 35.7257C34.7487 35.8233 34.8115 35.921 34.8743 35.9861C34.9371 36.0512 35.0312 36.0838 35.1254 36.0838C35.2196 36.0838 35.3137 36.0187 35.3765 35.9536C35.4393 35.8884 35.4707 35.7908 35.4707 35.6931C35.4707 35.5955 35.4079 35.4978 35.3451 35.4327C35.3137 35.3676 35.2196 35.3351 35.1254 35.3351Z" fill="white"/>
</g>
<defs>
<filter id="filter0_b_332_4187" x="-42" y="-42" width="140" height="140" filterUnits="userSpaceOnUse" color-interpolation-filters="sRGB">
<feFlood flood-opacity="0" result="BackgroundImageFix"/>
<feGaussianBlur in="BackgroundImageFix" stdDeviation="21"/>
<feComposite in2="SourceAlpha" operator="in" result="effect1_backgroundBlur_332_4187"/>
<feBlend mode="normal" in="SourceGraphic" in2="effect1_backgroundBlur_332_4187" result="shape"/>
</filter>
<radialGradient id="paint0_radial_332_4187" cx="0" cy="0" r="1" gradientUnits="userSpaceOnUse" gradientTransform="translate(0.503706 1.66611) rotate(44.0741) scale(76.0495 121.63)">
<stop stop-color="white" stop-opacity="0.4"/>
<stop offset="1" stop-color="white" stop-opacity="0"/>
</radialGradient>
<radialGradient id="paint1_radial_332_4187" cx="0" cy="0" r="1" gradientUnits="userSpaceOnUse" gradientTransform="translate(0.503706 1.66611) rotate(44.0741) scale(76.0495 121.63)">
<stop stop-color="#FFB2EF" stop-opacity="0"/>
<stop offset="1" stop-color="#FFB2EF"/>
</radialGradient>
<radialGradient id="paint2_radial_332_4187" cx="0" cy="0" r="1" gradientUnits="userSpaceOnUse" gradientTransform="translate(0.770369 54.2876) rotate(-44.0635) scale(75.6648 120.888)">
<stop stop-color="#FFB2EF" stop-opacity="0"/>
<stop offset="1" stop-color="#FFB2EF"/>
</radialGradient>
<linearGradient id="paint3_linear_332_4187" x1="1.03704" y1="1.52727" x2="65.8413" y2="31.135" gradientUnits="userSpaceOnUse">
<stop stop-color="white" stop-opacity="0.6"/>
<stop offset="1" stop-color="white" stop-opacity="0"/>
</linearGradient>
<linearGradient id="paint4_linear_332_4187" x1="41.5589" y1="17.7804" x2="33.842" y2="20.0864" gradientUnits="userSpaceOnUse">
<stop stop-color="#3AD4E0"/>
<stop offset="1" stop-color="#2EB5BF"/>
</linearGradient>
<linearGradient id="paint5_linear_332_4187" x1="21.43" y1="35.9528" x2="15.9205" y2="37.5857" gradientUnits="userSpaceOnUse">
<stop stop-color="#3AD4E0"/>
<stop offset="1" stop-color="#2EB5BF"/>
</linearGradient>
<linearGradient id="paint6_linear_332_4187" x1="18.0164" y1="37.9341" x2="10.301" y2="40.2424" gradientUnits="userSpaceOnUse">
<stop stop-color="#3AD4E0"/>
<stop offset="1" stop-color="#2EB5BF"/>
</linearGradient>
<linearGradient id="paint7_linear_332_4187" x1="25.3632" y1="16" x2="25.3632" y2="31.7227" gradientUnits="userSpaceOnUse">
<stop stop-color="#ED9CB0"/>
<stop offset="1" stop-color="#D68297"/>
</linearGradient>
<linearGradient id="paint8_linear_332_4187" x1="17.1861" y1="16" x2="17.1861" y2="31.7227" gradientUnits="userSpaceOnUse">
<stop stop-color="#ED9CB0"/>
<stop offset="1" stop-color="#D68297"/>
</linearGradient>
<linearGradient id="paint9_linear_332_4187" x1="33.4933" y1="26.7656" x2="33.4933" y2="40.9502" gradientUnits="userSpaceOnUse">
<stop stop-color="#3AD4E0"/>
<stop offset="1" stop-color="#2EB5BF"/>
</linearGradient>
<clipPath id="clip0_332_4187">
<rect width="28" height="25" fill="white" transform="translate(14 16)"/>
</clipPath>
</defs>
</svg>
