<svg width="56" height="56" viewBox="0 0 56 56" fill="none" xmlns="http://www.w3.org/2000/svg">
<g filter="url(#filter0_b_350_4463)">
<rect width="56" height="56" rx="18" fill="url(#paint0_radial_350_4463)"/>
<rect x="0.5" y="0.5" width="55" height="55" rx="17.5" stroke="url(#paint1_radial_350_4463)"/>
<rect x="0.5" y="0.5" width="55" height="55" rx="17.5" stroke="url(#paint2_radial_350_4463)"/>
<rect x="0.5" y="0.5" width="55" height="55" rx="17.5" stroke="url(#paint3_linear_350_4463)"/>
</g>
<path d="M35.5583 19.718C34.7377 19.018 33.6827 18.668 32.5104 18.668H28.7592H28.4075H24.6563C23.6013 18.668 22.5463 19.018 21.6085 19.718L16.3334 24.268L19.7329 28.3513L22.3118 26.368V37.3346H28.4075H28.7592H34.8549V26.2513L37.4339 28.2346L40.8334 24.1513L35.5583 19.718Z" fill="url(#paint4_linear_350_4463)"/>
<path d="M28.5833 22.168C30.1632 22.168 31.5 20.5638 31.5 18.668H28.9479H28.5833H25.6666C25.6666 20.5638 26.8819 22.168 28.5833 22.168Z" fill="url(#paint5_linear_350_4463)"/>
<path d="M16.3334 24.2682L19.7167 28.2349L21 27.1849L17.6167 23.1016L16.3334 24.2682Z" fill="url(#paint6_linear_350_4463)"/>
<path d="M40.7165 24.2682L37.3331 28.2349L36.0498 27.1849L39.4331 23.1016L40.7165 24.2682Z" fill="url(#paint7_linear_350_4463)"/>
<path d="M31.6166 25.2012H25.5499V27.5345H31.6166V25.2012Z" fill="white"/>
<defs>
<filter id="filter0_b_350_4463" x="-42" y="-42" width="140" height="140" filterUnits="userSpaceOnUse" color-interpolation-filters="sRGB">
<feFlood flood-opacity="0" result="BackgroundImageFix"/>
<feGaussianBlur in="BackgroundImageFix" stdDeviation="21"/>
<feComposite in2="SourceAlpha" operator="in" result="effect1_backgroundBlur_350_4463"/>
<feBlend mode="normal" in="SourceGraphic" in2="effect1_backgroundBlur_350_4463" result="shape"/>
</filter>
<radialGradient id="paint0_radial_350_4463" cx="0" cy="0" r="1" gradientUnits="userSpaceOnUse" gradientTransform="translate(0.503706 1.66611) rotate(44.0741) scale(76.0495 121.63)">
<stop stop-color="white" stop-opacity="0.4"/>
<stop offset="1" stop-color="white" stop-opacity="0"/>
</radialGradient>
<radialGradient id="paint1_radial_350_4463" cx="0" cy="0" r="1" gradientUnits="userSpaceOnUse" gradientTransform="translate(0.503706 1.66611) rotate(44.0741) scale(76.0495 121.63)">
<stop stop-color="#FFB2EF" stop-opacity="0"/>
<stop offset="1" stop-color="#FFB2EF"/>
</radialGradient>
<radialGradient id="paint2_radial_350_4463" cx="0" cy="0" r="1" gradientUnits="userSpaceOnUse" gradientTransform="translate(0.770369 54.2876) rotate(-44.0635) scale(75.6648 120.888)">
<stop stop-color="#FFB2EF" stop-opacity="0"/>
<stop offset="1" stop-color="#FFB2EF"/>
</radialGradient>
<linearGradient id="paint3_linear_350_4463" x1="1.03704" y1="1.52727" x2="65.8413" y2="31.135" gradientUnits="userSpaceOnUse">
<stop stop-color="white" stop-opacity="0.6"/>
<stop offset="1" stop-color="white" stop-opacity="0"/>
</linearGradient>
<linearGradient id="paint4_linear_350_4463" x1="28.5834" y1="18.668" x2="28.5834" y2="37.3346" gradientUnits="userSpaceOnUse">
<stop stop-color="#3AD4E0"/>
<stop offset="1" stop-color="#2EB5BF"/>
</linearGradient>
<linearGradient id="paint5_linear_350_4463" x1="28.5833" y1="18.668" x2="28.5833" y2="22.168" gradientUnits="userSpaceOnUse">
<stop stop-color="#ED9CB0"/>
<stop offset="1" stop-color="#D68297"/>
</linearGradient>
<linearGradient id="paint6_linear_350_4463" x1="18.6667" y1="23.1016" x2="18.6667" y2="28.2349" gradientUnits="userSpaceOnUse">
<stop stop-color="#ED9CB0"/>
<stop offset="1" stop-color="#D68297"/>
</linearGradient>
<linearGradient id="paint7_linear_350_4463" x1="38.3831" y1="23.1016" x2="38.3831" y2="28.2349" gradientUnits="userSpaceOnUse">
<stop stop-color="#ED9CB0"/>
<stop offset="1" stop-color="#D68297"/>
</linearGradient>
</defs>
</svg>
