<svg width="40" height="40" viewBox="0 0 40 40" fill="none" xmlns="http://www.w3.org/2000/svg">
<path d="M15.5167 11.1833C15.3622 11.3375 15.2396 11.5207 15.156 11.7223C15.0723 11.9239 15.0293 12.14 15.0293 12.3583C15.0293 12.5766 15.0723 12.7927 15.156 12.9944C15.2396 13.196 15.3622 13.3791 15.5167 13.5333L21.9834 20L15.5167 26.4667C15.2051 26.7783 15.03 27.201 15.03 27.6417C15.03 28.0824 15.2051 28.505 15.5167 28.8167C15.8283 29.1283 16.251 29.3034 16.6917 29.3034C17.1324 29.3034 17.5551 29.1283 17.8667 28.8167L25.5167 21.1667C25.6712 21.0125 25.7938 20.8293 25.8774 20.6277C25.9611 20.4261 26.0041 20.2099 26.0041 19.9917C26.0041 19.7734 25.9611 19.5572 25.8774 19.3556C25.7938 19.154 25.6712 18.9709 25.5167 18.8167L17.8667 11.1667C17.2334 10.5333 16.1667 10.5333 15.5167 11.1833Z" fill="white"/>
</svg>
