<svg width="48" height="64" viewBox="0 0 48 64" fill="none" xmlns="http://www.w3.org/2000/svg">
<path opacity="0.5" d="M32.0001 0H5.3334C3.91891 0 2.56236 0.573858 1.56217 1.59533C0.561972 2.61681 6.9217e-05 4.00222 6.9217e-05 5.44681V58.5532C6.9217e-05 59.9978 0.561972 61.3832 1.56217 62.4047C2.56236 63.4261 3.91891 64 5.3334 64H42.6667C44.0812 64 45.4378 63.4261 46.438 62.4047C47.4382 61.3832 48.0001 59.9978 48.0001 58.5532V16.3404L32.0001 0ZM42.6667 58.5532H5.3334V5.44681H29.3334V19.0638H42.6667V58.5532ZM37.3334 34.0426H10.6667V28.5957H37.3334V34.0426ZM29.3334 42.2128H10.6667V36.766H29.3334" fill="#999999"/>
</svg>
