<svg width="20" height="25" viewBox="0 0 20 25" fill="none" xmlns="http://www.w3.org/2000/svg">
<path d="M17.1818 13.5246V9.69451C17.18 7.98798 16.563 6.33713 15.4398 5.03431C14.3167 3.73148 12.76 2.86076 11.0454 2.57634V1.26351C11.0454 0.944076 10.9161 0.637725 10.686 0.411851C10.4558 0.185977 10.1437 0.059082 9.81818 0.059082C9.49268 0.059082 9.18052 0.185977 8.95036 0.411851C8.72021 0.637725 8.5909 0.944076 8.5909 1.26351V2.57634C6.87633 2.86076 5.31964 3.73148 4.19652 5.03431C3.07339 6.33713 2.45631 7.98798 2.45454 9.69451V13.5246C1.73837 13.7731 1.11804 14.2329 0.678606 14.841C0.239169 15.449 0.00213485 16.1756 0 16.9211V19.3299C0 19.6494 0.129302 19.9557 0.35946 20.1816C0.589618 20.4075 0.901779 20.5344 1.22727 20.5344H5.08091C5.36353 21.555 5.9805 22.4559 6.83664 23.0983C7.69278 23.7406 8.7405 24.0886 9.81818 24.0886C10.8958 24.0886 11.9436 23.7406 12.7997 23.0983C13.6559 22.4559 14.2728 21.555 14.5554 20.5344H18.4091C18.7346 20.5344 19.0467 20.4075 19.2769 20.1816C19.5071 19.9557 19.6364 19.6494 19.6364 19.3299V16.9211C19.6342 16.1756 19.3972 15.449 18.9577 14.841C18.5183 14.2329 17.898 13.7731 17.1818 13.5246ZM4.90909 9.69451C4.90909 8.41677 5.42629 7.19137 6.34693 6.28787C7.26756 5.38438 8.5162 4.8768 9.81818 4.8768C11.1201 4.8768 12.3688 5.38438 13.2894 6.28787C14.2101 7.19137 14.7273 8.41677 14.7273 9.69451V13.3078H4.90909V9.69451ZM9.81818 21.7388C9.38982 21.7363 8.96961 21.6238 8.59929 21.4125C8.22897 21.2012 7.92144 20.8984 7.70727 20.5344H11.9291C11.7149 20.8984 11.4074 21.2012 11.0371 21.4125C10.6667 21.6238 10.2465 21.7363 9.81818 21.7388ZM17.1818 18.1255H2.45454V16.9211C2.45454 16.6016 2.58385 16.2953 2.814 16.0694C3.04416 15.8435 3.35632 15.7167 3.68182 15.7167H15.9545C16.28 15.7167 16.5922 15.8435 16.8223 16.0694C17.0525 16.2953 17.1818 16.6016 17.1818 16.9211V18.1255Z" fill="#D64D6F"/>
</svg>
