<svg width="16" height="11" viewBox="0 0 16 11" fill="none" xmlns="http://www.w3.org/2000/svg">
<path d="M1.85263 6.4L1.34737 5.38947H4.88421L4.48 4.37895H1.17895L0.673684 3.36842H5.92842L5.52421 2.35789H0.579368L0 1.34737H2.52632C2.52632 0.990024 2.66827 0.647316 2.92095 0.394635C3.17363 0.141954 3.51634 0 3.87368 0H11.9579V2.69474H13.9789L16 5.38947V8.7579H14.6526C14.6526 9.29391 14.4397 9.80797 14.0607 10.187C13.6817 10.566 13.1676 10.7789 12.6316 10.7789C12.0956 10.7789 11.5815 10.566 11.2025 10.187C10.8235 9.80797 10.6105 9.29391 10.6105 8.7579H7.91579C7.91579 9.29391 7.70286 9.80797 7.32384 10.187C6.94482 10.566 6.43075 10.7789 5.89474 10.7789C5.35872 10.7789 4.84466 10.566 4.46564 10.187C4.08662 9.80797 3.87368 9.29391 3.87368 8.7579H2.52632V6.4H1.85263ZM12.6316 9.76842C12.8996 9.76842 13.1566 9.66195 13.3461 9.47244C13.5356 9.28293 13.6421 9.0259 13.6421 8.7579C13.6421 8.48989 13.5356 8.23286 13.3461 8.04334C13.1566 7.85383 12.8996 7.74737 12.6316 7.74737C12.3636 7.74737 12.1065 7.85383 11.917 8.04334C11.7275 8.23286 11.6211 8.48989 11.6211 8.7579C11.6211 9.0259 11.7275 9.28293 11.917 9.47244C12.1065 9.66195 12.3636 9.76842 12.6316 9.76842ZM13.6421 3.70526H11.9579V5.38947H14.9625L13.6421 3.70526ZM5.89474 9.76842C6.16275 9.76842 6.41978 9.66195 6.60929 9.47244C6.7988 9.28293 6.90526 9.0259 6.90526 8.7579C6.90526 8.48989 6.7988 8.23286 6.60929 8.04334C6.41978 7.85383 6.16275 7.74737 5.89474 7.74737C5.62673 7.74737 5.3697 7.85383 5.18019 8.04334C4.99068 8.23286 4.88421 8.48989 4.88421 8.7579C4.88421 9.0259 4.99068 9.28293 5.18019 9.47244C5.3697 9.66195 5.62673 9.76842 5.89474 9.76842Z" fill="#222222"/>
</svg>
