<svg width="16" height="16" viewBox="0 0 16 16" fill="none" xmlns="http://www.w3.org/2000/svg">
<path d="M15.9177 14.4816L14.7623 11.2H13.4944L14.1985 14.4H1.80198L2.50607 11.2H1.23819L0.0818871 14.4816C-0.211416 15.3168 0.308415 16 1.23819 16H14.7623C15.692 16 16.2119 15.3168 15.9177 14.4816ZM12.2265 4C12.2265 2.93913 11.7812 1.92172 10.9886 1.17157C10.1961 0.421427 9.1211 0 8.00023 0C6.87935 0 5.80438 0.421427 5.0118 1.17157C4.21922 1.92172 3.77396 2.93913 3.77396 4C3.77396 7.82 8.00023 12 8.00023 12C8.00023 12 12.2265 7.82 12.2265 4ZM5.71804 4.048C5.71804 2.8552 6.73911 1.8888 8.00023 1.8888C8.60539 1.8888 9.18576 2.11633 9.61367 2.52133C10.0416 2.92634 10.282 3.47564 10.282 4.0484C10.282 4.62116 10.0416 5.17046 9.61367 5.57547C9.18576 5.98047 8.60539 6.208 8.00023 6.208C7.39495 6.208 6.81447 5.98043 6.38648 5.57535C5.95848 5.17027 5.71804 4.62087 5.71804 4.048Z" fill="#333333"/>
</svg>
