<svg width="24" height="24" viewBox="0 0 24 24" fill="none" xmlns="http://www.w3.org/2000/svg">
<path fill-rule="evenodd" clip-rule="evenodd" d="M20.0387 5.75903H4.26248C3.7175 5.75903 3.27588 5.31741 3.27588 4.77347C3.27588 4.22849 3.7175 3.78687 4.26248 3.78687H20.0387C20.5827 3.78687 21.0243 4.22849 21.0243 4.77347C21.0243 5.31741 20.5827 5.75903 20.0387 5.75903Z" fill="#F969AE"/>
<path fill-rule="evenodd" clip-rule="evenodd" d="M20.0387 12.6614H4.26248C3.7175 12.6614 3.27588 12.2198 3.27588 11.6758C3.27588 11.1308 3.7175 10.6892 4.26248 10.6892H20.0387C20.5827 10.6892 21.0243 11.1308 21.0243 11.6758C21.0243 12.2198 20.5827 12.6614 20.0387 12.6614Z" fill="#F969AE"/>
<path fill-rule="evenodd" clip-rule="evenodd" d="M20.0387 19.5637H4.26248C3.7175 19.5637 3.27588 19.1221 3.27588 18.5782C3.27588 18.0332 3.7175 17.5916 4.26248 17.5916H20.0387C20.5827 17.5916 21.0243 18.0332 21.0243 18.5782C21.0243 19.1221 20.5827 19.5637 20.0387 19.5637Z" fill="#F969AE"/>
</svg>
