<svg width="16" height="16" viewBox="0 0 16 16" fill="none" xmlns="http://www.w3.org/2000/svg">
<path d="M8 0C3.58175 0 0 3.58175 0 8C0 12.4182 3.58175 16 8 16C12.4182 16 16 12.4182 16 8C15.995 3.58385 12.4162 0.00502232 8 0ZM3.14286 9.71429C2.19615 9.71429 1.42857 8.94671 1.42857 8C1.42857 7.05329 2.19615 6.28571 3.14286 6.28571C4.08956 6.28571 4.85714 7.05329 4.85714 8C4.85617 8.94643 4.08929 9.71331 3.14286 9.71429ZM8 9.71429C7.05329 9.71429 6.28571 8.94671 6.28571 8C6.28571 7.05329 7.05329 6.28571 8 6.28571C8.94671 6.28571 9.71429 7.05329 9.71429 8C9.71331 8.94643 8.94643 9.71331 8 9.71429ZM12.8571 9.71429C11.9104 9.71429 11.1429 8.94671 11.1429 8C11.1429 7.05329 11.9104 6.28571 12.8571 6.28571C13.8039 6.28571 14.5714 7.05329 14.5714 8C14.5705 8.94643 13.8036 9.71331 12.8571 9.71429Z" fill="black"/>
</svg>
