<svg width="40" height="40" viewBox="0 0 40 40" fill="none" xmlns="http://www.w3.org/2000/svg">
<path d="M24.4833 28.8167C24.6378 28.6625 24.7604 28.4793 24.844 28.2777C24.9277 28.0761 24.9707 27.86 24.9707 27.6417C24.9707 27.4234 24.9277 27.2073 24.844 27.0056C24.7604 26.804 24.6378 26.6209 24.4833 26.4667L18.0166 20L24.4833 13.5333C24.7949 13.2217 24.97 12.799 24.97 12.3583C24.97 11.9176 24.7949 11.495 24.4833 11.1833C24.1717 10.8717 23.749 10.6966 23.3083 10.6966C22.8676 10.6966 22.4449 10.8717 22.1333 11.1833L14.4833 18.8333C14.3288 18.9875 14.2062 19.1707 14.1226 19.3723C14.0389 19.5739 13.9959 19.7901 13.9959 20.0083C13.9959 20.2266 14.0389 20.4428 14.1226 20.6444C14.2062 20.846 14.3288 21.0291 14.4833 21.1833L22.1333 28.8333C22.7666 29.4667 23.8333 29.4667 24.4833 28.8167Z" fill="white"/>
</svg>
