<svg width="90" height="116" viewBox="0 0 90 116" fill="none" xmlns="http://www.w3.org/2000/svg">
<g filter="url(#filter0_d_5864_2805)">
<g clip-path="url(#clip0_5864_2805)">
<rect x="15" y="13" width="60" height="86" rx="8" fill="#5D5FEF"/>
<rect x="15" y="69" width="60" height="31" fill="#FCDDEC"/>
<path d="M59.9999 29.333H29.9999C29.5579 29.333 29.134 29.5086 28.8214 29.8212C28.5088 30.1337 28.3333 30.5576 28.3333 30.9997V37.6663H29.8216C31.4816 37.6663 33.0216 38.8013 33.2883 40.4397C33.3695 40.9181 33.3454 41.4084 33.2175 41.8765C33.0897 42.3446 32.8613 42.7792 32.5482 43.1499C32.2351 43.5206 31.8448 43.8186 31.4047 44.0229C30.9646 44.2272 30.4852 44.3331 29.9999 44.333H28.3333V50.9997C28.3333 51.4417 28.5088 51.8656 28.8214 52.1782C29.134 52.4908 29.5579 52.6663 29.9999 52.6663H59.9999C60.4419 52.6663 60.8659 52.4908 61.1784 52.1782C61.491 51.8656 61.6666 51.4417 61.6666 50.9997V44.333H59.9999C59.5147 44.3331 59.0353 44.2272 58.5951 44.0229C58.155 43.8186 57.7648 43.5206 57.4517 43.1499C57.1386 42.7792 56.9101 42.3446 56.7823 41.8765C56.6545 41.4084 56.6303 40.9181 56.7116 40.4397C56.9783 38.8013 58.5183 37.6663 60.1783 37.6663H61.6666V30.9997C61.6666 30.5576 61.491 30.1337 61.1784 29.8212C60.8659 29.5086 60.4419 29.333 59.9999 29.333ZM39.9999 35.9997C40.4419 35.9997 40.8659 36.1753 41.1784 36.4878C41.491 36.8004 41.6666 37.2243 41.6666 37.6663C41.6666 38.1084 41.491 38.5323 41.1784 38.8449C40.8659 39.1574 40.4419 39.333 39.9999 39.333C39.5579 39.333 39.134 39.1574 38.8214 38.8449C38.5088 38.5323 38.3333 38.1084 38.3333 37.6663C38.3333 37.2243 38.5088 36.8004 38.8214 36.4878C39.134 36.1753 39.5579 35.9997 39.9999 35.9997V35.9997ZM38.6666 46.6663L48.6666 33.333L51.3333 35.333L41.3333 48.6663L38.6666 46.6663V46.6663ZM49.9999 45.9997C49.5579 45.9997 49.134 45.8241 48.8214 45.5115C48.5088 45.199 48.3333 44.775 48.3333 44.333C48.3333 43.891 48.5088 43.4671 48.8214 43.1545C49.134 42.8419 49.5579 42.6663 49.9999 42.6663C50.4419 42.6663 50.8659 42.8419 51.1784 43.1545C51.491 43.4671 51.6666 43.891 51.6666 44.333C51.6666 44.775 51.491 45.199 51.1784 45.5115C50.8659 45.8241 50.4419 45.9997 49.9999 45.9997Z" fill="#FCDDEC"/>
<path d="M31.0136 87L27.7856 83.268V87H26.4176V78.66H27.7856V82.464L31.0256 78.66H32.7416L29.1176 82.836L32.8016 87H31.0136ZM39.9993 80.388V87H38.6313V86.22C38.4153 86.492 38.1313 86.708 37.7793 86.868C37.4353 87.02 37.0673 87.096 36.6753 87.096C36.1553 87.096 35.6873 86.988 35.2713 86.772C34.8633 86.556 34.5393 86.236 34.2993 85.812C34.0673 85.388 33.9513 84.876 33.9513 84.276V80.388H35.3073V84.072C35.3073 84.664 35.4553 85.12 35.7513 85.44C36.0473 85.752 36.4513 85.908 36.9633 85.908C37.4753 85.908 37.8793 85.752 38.1753 85.44C38.4793 85.12 38.6313 84.664 38.6313 84.072V80.388H39.9993ZM43.1723 81.36C43.4043 81.056 43.7203 80.8 44.1203 80.592C44.5203 80.384 44.9723 80.28 45.4763 80.28C46.0523 80.28 46.5763 80.424 47.0483 80.712C47.5283 80.992 47.9043 81.388 48.1763 81.9C48.4483 82.412 48.5843 83 48.5843 83.664C48.5843 84.328 48.4483 84.924 48.1763 85.452C47.9043 85.972 47.5283 86.38 47.0483 86.676C46.5763 86.964 46.0523 87.108 45.4763 87.108C44.9723 87.108 44.5243 87.008 44.1323 86.808C43.7403 86.6 43.4203 86.344 43.1723 86.04V90.144H41.8043V80.388H43.1723V81.36ZM47.1923 83.664C47.1923 83.208 47.0963 82.816 46.9043 82.488C46.7203 82.152 46.4723 81.9 46.1603 81.732C45.8563 81.556 45.5283 81.468 45.1763 81.468C44.8323 81.468 44.5043 81.556 44.1923 81.732C43.8883 81.908 43.6403 82.164 43.4483 82.5C43.2643 82.836 43.1723 83.232 43.1723 83.688C43.1723 84.144 43.2643 84.544 43.4483 84.888C43.6403 85.224 43.8883 85.48 44.1923 85.656C44.5043 85.832 44.8323 85.92 45.1763 85.92C45.5283 85.92 45.8563 85.832 46.1603 85.656C46.4723 85.472 46.7203 85.208 46.9043 84.864C47.0963 84.52 47.1923 84.12 47.1923 83.664ZM52.8051 87.108C52.1811 87.108 51.6171 86.968 51.1131 86.688C50.6091 86.4 50.2131 86 49.9251 85.488C49.6371 84.968 49.4931 84.368 49.4931 83.688C49.4931 83.016 49.6411 82.42 49.9371 81.9C50.2331 81.38 50.6371 80.98 51.1491 80.7C51.6611 80.42 52.2331 80.28 52.8651 80.28C53.4971 80.28 54.0691 80.42 54.5811 80.7C55.0931 80.98 55.4971 81.38 55.7931 81.9C56.0891 82.42 56.2371 83.016 56.2371 83.688C56.2371 84.36 56.0851 84.956 55.7811 85.476C55.4771 85.996 55.0611 86.4 54.5331 86.688C54.0131 86.968 53.4371 87.108 52.8051 87.108ZM52.8051 85.92C53.1571 85.92 53.4851 85.836 53.7891 85.668C54.1011 85.5 54.3531 85.248 54.5451 84.912C54.7371 84.576 54.8331 84.168 54.8331 83.688C54.8331 83.208 54.7411 82.804 54.5571 82.476C54.3731 82.14 54.1291 81.888 53.8251 81.72C53.5211 81.552 53.1931 81.468 52.8411 81.468C52.4891 81.468 52.1611 81.552 51.8571 81.72C51.5611 81.888 51.3251 82.14 51.1491 82.476C50.9731 82.804 50.8851 83.208 50.8851 83.688C50.8851 84.4 51.0651 84.952 51.4251 85.344C51.7931 85.728 52.2531 85.92 52.8051 85.92ZM60.9255 80.28C61.4455 80.28 61.9095 80.388 62.3175 80.604C62.7335 80.82 63.0575 81.14 63.2895 81.564C63.5215 81.988 63.6375 82.5 63.6375 83.1V87H62.2815V83.304C62.2815 82.712 62.1335 82.26 61.8375 81.948C61.5415 81.628 61.1375 81.468 60.6255 81.468C60.1135 81.468 59.7055 81.628 59.4015 81.948C59.1055 82.26 58.9575 82.712 58.9575 83.304V87H57.5895V80.388H58.9575V81.144C59.1815 80.872 59.4655 80.66 59.8095 80.508C60.1615 80.356 60.5335 80.28 60.9255 80.28Z" fill="#5D5FEF"/>
</g>
</g>
<defs>
<filter id="filter0_d_5864_2805" x="0" y="0" width="90" height="116" filterUnits="userSpaceOnUse" color-interpolation-filters="sRGB">
<feFlood flood-opacity="0" result="BackgroundImageFix"/>
<feColorMatrix in="SourceAlpha" type="matrix" values="0 0 0 0 0 0 0 0 0 0 0 0 0 0 0 0 0 0 127 0" result="hardAlpha"/>
<feOffset dy="2"/>
<feGaussianBlur stdDeviation="7.5"/>
<feColorMatrix type="matrix" values="0 0 0 0 0 0 0 0 0 0 0 0 0 0 0 0 0 0 0.07 0"/>
<feBlend mode="normal" in2="BackgroundImageFix" result="effect1_dropShadow_5864_2805"/>
<feBlend mode="normal" in="SourceGraphic" in2="effect1_dropShadow_5864_2805" result="shape"/>
</filter>
<clipPath id="clip0_5864_2805">
<rect x="15" y="13" width="60" height="86" rx="8" fill="white"/>
</clipPath>
</defs>
</svg>
