<svg width="24" height="24" viewBox="0 0 24 24" fill="none" xmlns="http://www.w3.org/2000/svg">
<path d="M18.8 9.4C18.8 13.6 14.7 17.9 13.1 19.5C12.7 19.9 12.1 19.9 11.7 19.5C10.1 17.9 6 13.5 6 9.4C6 7.4 6.9 5.6 8.4 4.4C9.5 3.5 10.9 3 12.4 3C14.1 3 15.6 3.7 16.8 4.7C18 5.9 18.8 7.5 18.8 9.4Z" stroke="#3AD4E0" stroke-width="1.5" stroke-miterlimit="10" stroke-linecap="round" stroke-linejoin="round"/>
<path d="M12.4002 11.5992C13.6152 11.5992 14.6002 10.6142 14.6002 9.39922C14.6002 8.18419 13.6152 7.19922 12.4002 7.19922C11.1852 7.19922 10.2002 8.18419 10.2002 9.39922C10.2002 10.6142 11.1852 11.5992 12.4002 11.5992Z" stroke="#3AD4E0" stroke-width="1.5" stroke-miterlimit="10" stroke-linecap="round" stroke-linejoin="round"/>
</svg>
