<svg width="16" height="16" viewBox="0 0 16 16" fill="none" xmlns="http://www.w3.org/2000/svg">
<path d="M9.18008 6.27015C9.18008 6.27015 8.55087 5.32633 7.44975 5.79824C6.50593 6.27015 6.58458 7.76453 8.00031 8.00049C9.41604 8.23644 9.49469 9.73082 8.55087 10.2027C7.44975 10.6746 6.82053 9.73082 6.82053 9.73082M8.07865 5.56226V4.61844M8.07865 11.2253V10.5M15 8C15 11.866 11.866 15 8 15C4.13401 15 1 11.866 1 8C1 4.13401 4.13401 1 8 1C11.866 1 15 4.13401 15 8Z" stroke="#1E3354" stroke-width="1.3" stroke-miterlimit="10" stroke-linecap="round" stroke-linejoin="round"/>
</svg>
