<svg width="64" height="64" viewBox="0 0 64 64" fill="none" xmlns="http://www.w3.org/2000/svg">
<path d="M55.5712 13.666H8.42837C7.73376 13.666 7.06759 13.942 6.57643 14.4331C6.08526 14.9243 5.80933 15.5904 5.80933 16.2851V26.7613H8.14814C10.7567 26.7613 13.1767 28.5448 13.5958 31.1194C13.7234 31.8711 13.6855 32.6417 13.4846 33.3773C13.2837 34.1129 12.9248 34.7958 12.4328 35.3783C11.9407 35.9609 11.3275 36.429 10.6359 36.7501C9.94426 37.0712 9.1909 37.2375 8.42837 37.2375H5.80933V47.7136C5.80933 48.4083 6.08526 49.0744 6.57643 49.5656C7.06759 50.0568 7.73376 50.3327 8.42837 50.3327H55.5712C56.2659 50.3327 56.932 50.0568 57.4232 49.5656C57.9144 49.0744 58.1903 48.4083 58.1903 47.7136V37.2375H55.5712C54.8087 37.2375 54.0553 37.0712 53.3637 36.7501C52.6721 36.429 52.0589 35.9609 51.5669 35.3783C51.0748 34.7958 50.7159 34.1129 50.515 33.3773C50.3141 32.6417 50.2762 31.8711 50.4039 31.1194C50.8229 28.5448 53.2429 26.7613 55.8515 26.7613H58.1903V16.2851C58.1903 15.5904 57.9144 14.9243 57.4232 14.4331C56.932 13.942 56.2659 13.666 55.5712 13.666ZM29.3808 45.0946H24.1427V39.8565H29.3808V45.0946ZM29.3808 34.6184H24.1427V29.3803H29.3808V34.6184ZM29.3808 24.1422H24.1427V18.9041H29.3808V24.1422Z" fill="#EF5DA8"/>
<path d="M55.5712 13.666H38.2854C37.5908 13.666 36.9247 13.942 36.4335 14.4331C35.9423 14.9243 35.6664 15.5904 35.6664 16.2851V26.7613H38.0052C40.6138 26.7613 43.0338 28.5448 43.4528 31.1194C43.5805 31.8711 43.5425 32.6417 43.3417 33.3773C43.1408 34.1129 42.7818 34.7958 42.2898 35.3783C41.7978 35.9609 41.1846 36.429 40.4929 36.7501C39.8013 37.0712 39.048 37.2375 38.2854 37.2375H35.6664V47.7136C35.6664 48.4083 35.9423 49.0744 36.4335 49.5656C36.9247 50.0568 37.5908 50.3327 38.2854 50.3327H55.5712C56.2658 50.3327 56.9319 50.0568 57.4231 49.5656C57.9143 49.0744 58.1902 48.4083 58.1902 47.7136V37.2375H55.5712C54.8086 37.2375 54.0553 37.0712 53.3636 36.7501C52.672 36.429 52.0588 35.9609 51.5668 35.3783C51.0748 34.7958 50.7158 34.1129 50.5149 33.3773C50.314 32.6417 50.2761 31.8711 50.4038 31.1194C50.8228 28.5448 53.2428 26.7613 55.8514 26.7613H58.1902V16.2851C58.1902 15.5904 57.9143 14.9243 57.4231 14.4331C56.9319 13.942 56.2658 13.666 55.5712 13.666ZM29.3807 45.0946H24.1426V39.8565H29.3807V45.0946ZM29.3807 34.6184H24.1426V29.3803H29.3807V34.6184ZM29.3807 24.1422H24.1426V18.9041H29.3807V24.1422Z" fill="#74D6D6"/>
</svg>
