<svg width="24" height="24" viewBox="0 0 24 24" fill="none" xmlns="http://www.w3.org/2000/svg">
<path d="M14.5 8V17.1H9.4C9.4 16.1 8.6 15.2 7.5 15.2C6.4 15.2 5.6 16 5.6 17.1H3V8C3 6.9 3.9 6 5 6H12.5C13.6 6 14.5 6.9 14.5 8Z" stroke="#3AD4E0" stroke-width="1.3" stroke-miterlimit="10" stroke-linecap="round" stroke-linejoin="round"/>
<path d="M14.5 10.3008H18.5C19 10.3008 19.5 10.5008 19.9 10.9008L22 13.0008V17.1008H20.1" stroke="#3AD4E0" stroke-width="1.3" stroke-miterlimit="10" stroke-linecap="round" stroke-linejoin="round"/>
<path d="M9.40059 17.0992C9.40059 18.0992 8.60059 18.9992 7.50059 18.9992C6.40059 18.9992 5.60059 18.1992 5.60059 17.0992C5.60059 16.0992 6.40059 15.1992 7.50059 15.1992C8.60059 15.1992 9.40059 16.0992 9.40059 17.0992Z" stroke="#3AD4E0" stroke-width="1.3" stroke-miterlimit="10" stroke-linecap="round" stroke-linejoin="round"/>
<path d="M20.1008 17.0992C20.1008 18.0992 19.3008 18.9992 18.2008 18.9992C17.2008 18.9992 16.3008 18.1992 16.3008 17.0992C16.3008 16.0992 17.1008 15.1992 18.2008 15.1992C19.2008 15.1992 20.1008 16.0992 20.1008 17.0992Z" stroke="#3AD4E0" stroke-width="1.3" stroke-miterlimit="10" stroke-linecap="round" stroke-linejoin="round"/>
</svg>
