<svg width="11" height="10" viewBox="0 0 11 10" fill="none" xmlns="http://www.w3.org/2000/svg">
<path d="M5.22352 0.470623C5.3768 0.200473 5.76606 0.200473 5.91933 0.470623L7.2567 2.82781C7.31368 2.92823 7.41127 2.99914 7.52439 3.02229L10.1795 3.5658C10.4838 3.62809 10.6041 3.9983 10.3945 4.22755L8.56595 6.22788C8.48805 6.3131 8.45077 6.42782 8.4637 6.54256L8.76726 9.23565C8.80205 9.54429 8.48713 9.7731 8.20434 9.64464L5.73687 8.52372C5.63174 8.47596 5.51111 8.47596 5.40599 8.52372L2.93852 9.64464C2.65573 9.7731 2.3408 9.54429 2.37559 9.23565L2.67916 6.54256C2.69209 6.42782 2.65481 6.3131 2.57691 6.22788L0.748366 4.22755C0.538801 3.9983 0.659091 3.62809 0.963383 3.5658L3.61847 3.02229C3.73158 2.99914 3.82918 2.92823 3.88615 2.82781L5.22352 0.470623Z" fill="#FFA501"/>
</svg>
