<svg width="25" height="25" viewBox="0 0 25 25" fill="none" xmlns="http://www.w3.org/2000/svg">
<g clip-path="url(#clip0_580_5641)">
<path d="M12.5 0.00195312C5.59716 0.00195312 0 5.59802 0 12.5014C0 19.4048 5.59661 25.0009 12.5 25.0009C19.4039 25.0009 25 19.4048 25 12.5014C25 5.59802 19.4039 0.00195312 12.5 0.00195312ZM12.5 3.73943C14.7841 3.73943 16.635 5.59088 16.635 7.87389C16.635 10.1574 14.7841 12.0083 12.5 12.0083C10.217 12.0083 8.36609 10.1574 8.36609 7.87389C8.36609 5.59088 10.217 3.73943 12.5 3.73943ZM12.4973 21.7328C10.2192 21.7328 8.13274 20.9032 6.52343 19.53C6.1314 19.1956 5.90519 18.7053 5.90519 18.1908C5.90519 15.8754 7.77914 14.0223 10.0951 14.0223H14.906C17.2225 14.0223 19.0893 15.8754 19.0893 18.1908C19.0893 18.7058 18.8642 19.195 18.4716 19.5294C16.8629 20.9032 14.7759 21.7328 12.4973 21.7328Z" fill="#FFE2F1"/>
</g>
<defs>
<clipPath id="clip0_580_5641">
<rect width="25" height="25" fill="white"/>
</clipPath>
</defs>
</svg>
