<svg width="36" height="36" viewBox="0 0 36 36" fill="none" xmlns="http://www.w3.org/2000/svg">
<path d="M7.26667 22.7688V29.7979C7.27051 30.1512 7.41355 30.4887 7.66475 30.7372C7.91595 30.9857 8.25501 31.125 8.60833 31.125H16.8042V22.7688H7.26667ZM19.1958 31.125H27.3917C27.745 31.125 28.0841 30.9857 28.3353 30.7372C28.5864 30.4887 28.7295 30.1512 28.7333 29.7979V22.7688H19.1958V31.125ZM29.8125 10.8396H27.1292C27.404 10.2814 27.5486 9.66805 27.5521 9.04583C27.5482 7.93832 27.1056 6.87749 26.3211 6.09572C25.5366 5.31395 24.4742 4.87499 23.3667 4.875C22.2097 4.92987 21.0918 5.3109 20.1422 5.9741C19.1926 6.63729 18.4499 7.55558 18 8.62292C17.5501 7.55558 16.8074 6.63729 15.8578 5.9741C14.9082 5.3109 13.7903 4.92987 12.6333 4.875C11.5258 4.87499 10.4634 5.31395 9.67894 6.09572C8.89444 6.87749 8.45178 7.93832 8.44792 9.04583C8.45138 9.66805 8.59598 10.2814 8.87083 10.8396H6.1875C5.45833 10.8396 4.875 11.7 4.875 12.75V18.4812C4.875 19.5312 5.45833 20.3917 6.1875 20.3917H16.8042V10.8396H19.1958V20.3917H29.8125C30.5417 20.3917 31.125 19.5312 31.125 18.4812V12.75C31.125 11.7 30.5417 10.8396 29.8125 10.8396ZM12.6333 10.8396C12.3852 10.862 12.135 10.8325 11.8989 10.7529C11.6628 10.6734 11.4458 10.5455 11.2619 10.3774C11.0779 10.2093 10.931 10.0048 10.8305 9.77675C10.7299 9.54875 10.678 9.3023 10.678 9.05312C10.678 8.80395 10.7299 8.5575 10.8305 8.3295C10.931 8.10149 11.0779 7.89693 11.2619 7.72886C11.4458 7.56079 11.6628 7.43288 11.8989 7.35331C12.135 7.27373 12.3852 7.24422 12.6333 7.26667C14.675 7.26667 15.8271 9.36667 16.3958 10.8396H12.6333ZM23.3667 10.8396H19.6042C20.1729 9.38125 21.325 7.26667 23.3667 7.26667C23.6148 7.24422 23.865 7.27373 24.1011 7.35331C24.3372 7.43288 24.5542 7.56079 24.7381 7.72886C24.9221 7.89693 25.069 8.10149 25.1695 8.3295C25.2701 8.5575 25.322 8.80395 25.322 9.05312C25.322 9.3023 25.2701 9.54875 25.1695 9.77675C25.069 10.0048 24.9221 10.2093 24.7381 10.3774C24.5542 10.5455 24.3372 10.6734 24.1011 10.7529C23.865 10.8325 23.6148 10.862 23.3667 10.8396Z" fill="white"/>
</svg>
