<svg width="24" height="24" viewBox="0 0 24 24" fill="none" xmlns="http://www.w3.org/2000/svg">
<path d="M3.74197 2L2.00174 2.01367C1.86936 2.01294 1.73816 2.03849 1.61574 2.08885C1.49331 2.13921 1.3821 2.21337 1.28856 2.30703C1.19502 2.4007 1.121 2.512 1.0708 2.63449C1.0206 2.75698 0.995212 2.88822 0.996117 3.02059C0.997022 3.15297 1.0242 3.28384 1.07607 3.40563C1.12794 3.52742 1.20347 3.63771 1.29829 3.73008C1.3931 3.82246 1.50532 3.8951 1.62842 3.94378C1.75152 3.99246 1.88306 4.01621 2.01541 4.01367L3.08572 4.00586L6.37869 11.9082L5.18143 13.8223C4.34307 15.161 5.36246 17 6.94119 17H17.9998C18.1323 17.0019 18.2639 16.9774 18.3868 16.928C18.5098 16.8786 18.6217 16.8052 18.7161 16.7122C18.8105 16.6191 18.8854 16.5082 18.9365 16.386C18.9877 16.2637 19.014 16.1325 19.014 16C19.014 15.8675 18.9877 15.7363 18.9365 15.614C18.8854 15.4918 18.8105 15.3809 18.7161 15.2878C18.6217 15.1948 18.5098 15.1214 18.3868 15.072C18.2639 15.0226 18.1323 14.9981 17.9998 15H6.94119C6.82992 15 6.81709 14.9781 6.87674 14.8828C6.87739 14.8828 6.87804 14.8828 6.87869 14.8828L8.05447 13H15.5213C16.2473 13 16.9173 12.6057 17.2693 11.9707L20.8709 5.48437C21.2419 4.81837 20.7598 4 19.9978 4H5.24978L4.67361 2.61523C4.59709 2.43168 4.46758 2.2751 4.30163 2.16551C4.13569 2.05593 3.94083 1.9983 3.74197 2ZM6.99978 18C6.46935 18 5.96064 18.2107 5.58557 18.5858C5.2105 18.9609 4.99978 19.4696 4.99978 20C4.99978 20.5304 5.2105 21.0391 5.58557 21.4142C5.96064 21.7893 6.46935 22 6.99978 22C7.53022 22 8.03893 21.7893 8.414 21.4142C8.78907 21.0391 8.99979 20.5304 8.99979 20C8.99979 19.4696 8.78907 18.9609 8.414 18.5858C8.03893 18.2107 7.53022 18 6.99978 18ZM16.9998 18C16.4694 18 15.9606 18.2107 15.5856 18.5858C15.2105 18.9609 14.9998 19.4696 14.9998 20C14.9998 20.5304 15.2105 21.0391 15.5856 21.4142C15.9606 21.7893 16.4694 22 16.9998 22C17.5302 22 18.0389 21.7893 18.414 21.4142C18.7891 21.0391 18.9998 20.5304 18.9998 20C18.9998 19.4696 18.7891 18.9609 18.414 18.5858C18.0389 18.2107 17.5302 18 16.9998 18Z" fill="white"/>
</svg>
