<svg width="24" height="24" viewBox="0 0 24 24" fill="none" xmlns="http://www.w3.org/2000/svg">
<path d="M8 4V6" stroke="#3AD4E0" stroke-width="1.3" stroke-miterlimit="10" stroke-linecap="round" stroke-linejoin="round"/>
<path d="M8 10L8 14" stroke="#3AD4E0" stroke-width="1.3" stroke-miterlimit="10" stroke-linecap="round" stroke-linejoin="round"/>
<path d="M8 18V20" stroke="#3AD4E0" stroke-width="1.3" stroke-miterlimit="10" stroke-linecap="round" stroke-linejoin="round"/>
<path d="M18.9146 12.0647C18.9146 10.6644 19.8415 9.49741 21 9.14732V5.64646C21 4.7129 20.3049 4.01272 19.378 4.01272H3.62195C2.69512 3.89603 2 4.5962 2 5.52977V9.03063C3.27439 9.49741 4.08537 10.5477 4.08537 11.948C4.08537 13.3484 3.15854 14.5153 2 14.8654V18.3663C2 19.2998 2.69512 20 3.62195 20H19.378C20.3049 20 21 19.2998 21 18.3663V14.8654C19.7256 14.5153 18.9146 13.3484 18.9146 12.0647Z" stroke="#3AD4E0" stroke-width="1.3" stroke-miterlimit="10" stroke-linecap="round" stroke-linejoin="round"/>
</svg>
